# 3ds Max Wavefront OBJ Exporter v0.97b - (c)2007 guruware
# File Created: 19.02.2016 19:41:03

mtllib Column_A.mtl

#
# object Column_A
#

v  38.43903 220.99709 38.37695
v  38.43903 220.99709 -38.37695
v  -38.43909 220.99709 -38.37695
v  -38.43909 220.99709 38.37695
v  -38.43909 212.97821 38.37695
v  -38.43909 212.97821 -38.37695
v  -38.43909 207.88806 -38.37695
v  -38.43909 207.88806 38.37695
v  38.43903 212.97821 38.37695
v  38.43903 207.88806 38.37695
v  38.43903 212.97821 -38.37695
v  38.43903 207.88806 -38.37695
v  -36.24878 204.08664 -36.19019
v  36.24872 204.08664 -36.19019
v  36.24872 204.08664 36.19019
v  -36.24878 204.08664 36.19019
v  30.71313 201.17209 -30.66357
v  -30.71313 201.17209 -30.66357
v  30.71313 201.17209 30.66357
v  -30.71313 201.17209 30.66357
v  10.95258 186.65135 25.99756
v  10.95258 -2.46069 25.99756
v  26.05951 -2.46069 10.89063
v  26.05951 186.65134 10.89063
v  26.05951 -2.46069 -10.47388
v  26.05951 186.65134 -10.47388
v  10.95258 -2.46069 -25.58081
v  10.95258 186.65134 -25.58081
v  -10.41187 -2.46069 -25.58081
v  -10.41187 186.65134 -25.58081
v  -25.51880 -2.46069 -10.47388
v  -25.51880 186.65134 -10.47388
v  -25.51880 -2.46069 10.89063
v  -25.51880 186.65134 10.89063
v  -10.41187 -2.46069 25.99756
v  -10.41187 186.65134 25.99756
v  11.60474 192.50015 27.57214
v  10.95258 191.22603 25.99756
v  26.05951 191.22603 10.89063
v  27.63403 192.50015 11.54285
v  26.05951 191.22603 -10.47388
v  27.63403 192.50015 -11.12610
v  10.95258 191.22603 -25.58081
v  11.60474 192.50015 -27.15533
v  -10.41187 191.22603 -25.58081
v  -11.06409 192.50015 -27.15533
v  -25.51880 191.22603 -10.47388
v  -27.09338 192.50015 -11.12604
v  -25.51880 191.22603 10.89063
v  -27.09338 192.50015 11.54285
v  -10.41187 191.22603 25.99756
v  -11.06409 192.50015 27.57214
v  28.30511 199.26047 11.82083
v  11.88269 199.26047 28.24316
v  11.15344 196.32254 26.48254
v  26.54449 196.32254 11.09149
v  28.30511 199.26047 -11.40399
v  26.54449 196.32254 -10.67468
v  11.88269 199.26047 -27.82639
v  11.15344 196.32254 -26.06573
v  -11.34204 199.26047 -27.82642
v  -10.61279 196.32254 -26.06573
v  -27.76440 199.26047 -11.40399
v  -26.00378 196.32254 -10.67468
v  -27.76440 199.26047 11.82080
v  -26.00378 196.32254 11.09149
v  -11.34204 199.26047 28.24316
v  -10.61279 196.32254 26.48254
v  28.55463 188.93869 11.92413
v  11.98608 188.93869 28.49268
v  28.55463 188.93869 -11.50732
v  11.98608 188.93869 -28.07593
v  -11.44543 188.93869 -28.07590
v  -28.01392 188.93869 -11.50732
v  -28.01392 188.93869 11.92413
v  -11.44543 188.93869 28.49268
v  11.21094 193.77428 26.62134
v  26.68329 193.77428 11.14902
v  26.68329 193.77428 -10.73224
v  11.21094 193.77428 -26.20459
v  -10.67029 193.77428 -26.20459
v  -26.14258 193.77428 -10.73224
v  -26.14258 193.77428 11.14899
v  -10.67029 193.77428 26.62134
v  -37.51050 215.20935 -37.44843
v  -37.51050 212.97821 -37.44843
v  -37.51050 212.97821 37.44836
v  -37.51050 215.20935 37.44836
v  37.51050 212.97821 37.44836
v  37.51050 215.20935 37.44836
v  37.51050 212.97821 -37.44843
v  37.51050 215.20935 -37.44843
v  -38.43909 215.20935 -38.37695
v  -38.43909 215.20935 38.37695
v  38.43903 215.20935 38.37695
v  38.43903 215.20935 -38.37695
# 96 vertices

vn 0.00000 1.00000 -0.00000
vn -0.70711 0.00000 0.70711
vn -0.70711 0.00000 -0.70711
vn -0.67565 -0.29513 -0.67557
vn -0.67565 -0.29513 0.67557
vn 0.70711 0.00000 0.70711
vn 0.67565 -0.29513 0.67557
vn 0.70711 0.00000 -0.70711
vn 0.67565 -0.29513 -0.67557
vn -0.46243 -0.75636 -0.46269
vn 0.46243 -0.75636 -0.46269
vn 0.46243 -0.75636 0.46269
vn -0.46243 -0.75636 0.46269
vn 0.21702 -0.95158 -0.21770
vn -0.21625 -0.95203 -0.21651
vn 0.21798 -0.95122 0.21834
vn -0.21716 -0.95169 0.21710
vn 0.38268 0.00000 0.92388
vn 1.00000 0.00000 -0.00000
vn 0.92388 0.00000 -0.38268
vn 0.00000 0.00000 -1.00000
vn -0.92388 0.00000 -0.38268
vn -0.92388 0.00000 0.38268
vn -0.38268 0.00000 0.92388
vn 0.22914 -0.80092 0.55319
vn 0.55320 -0.80092 0.22914
vn 0.55319 -0.80092 0.22914
vn 0.55320 -0.80092 -0.22914
vn 0.55319 -0.80092 -0.22914
vn 0.22914 -0.80091 -0.55320
vn -0.22914 -0.80092 -0.55320
vn -0.22914 -0.80092 -0.55319
vn -0.55319 -0.80092 -0.22914
vn -0.55318 -0.80093 0.22914
vn -0.22914 -0.80093 0.55318
vn 0.63882 -0.75507 0.14757
vn 0.14759 -0.75589 0.63785
vn 0.36777 -0.27642 0.88788
vn 0.88788 -0.27642 0.36777
vn 0.63887 -0.75509 -0.14728
vn 0.88788 -0.27642 -0.36777
vn 0.14792 -0.78012 -0.60789
vn 0.36778 -0.27641 -0.88788
vn -0.14754 -0.78015 -0.60795
vn -0.36778 -0.27642 -0.88788
vn -0.60077 -0.78565 -0.14772
vn -0.88788 -0.27642 -0.36777
vn -0.60072 -0.78563 0.14802
vn -0.88788 -0.27642 0.36777
vn -0.14721 -0.75591 0.63791
vn -0.36777 -0.27642 0.88788
vn 0.24733 -0.76309 0.59710
vn 0.59710 -0.76309 0.24733
vn 0.59710 -0.76308 -0.24733
vn 0.24733 -0.76309 -0.59710
vn -0.24732 -0.76309 -0.59710
vn -0.24733 -0.76309 -0.59710
vn -0.59710 -0.76308 -0.24733
vn -0.59710 -0.76309 0.24733
vn -0.24732 -0.76309 0.59710
vn -0.24733 -0.76309 0.59710
vn 0.24733 0.76309 0.59710
vn 0.59710 0.76309 0.24733
vn 0.59710 0.76309 -0.24733
vn 0.24733 0.76309 -0.59710
vn -0.24733 0.76309 -0.59710
vn -0.24732 0.76309 -0.59710
vn -0.59710 0.76309 -0.24732
vn -0.59710 0.76309 -0.24733
vn -0.59710 0.76309 0.24733
vn -0.24733 0.76309 0.59709
vn -0.24732 0.76309 0.59710
vn 0.35260 0.38864 0.85125
vn 0.85126 0.38863 0.35260
vn 0.85126 0.38863 -0.35260
vn 0.35260 0.38863 -0.85126
vn -0.35260 0.38863 -0.85125
vn -0.85125 0.38864 -0.35260
vn -0.85125 0.38864 0.35260
vn -0.35260 0.38864 0.85125
vn 0.29770 0.62835 0.71872
vn 0.71873 0.62833 0.29771
vn 0.71872 0.62834 -0.29771
vn 0.29771 0.62833 -0.71873
vn -0.29771 0.62833 -0.71873
vn -0.71872 0.62835 -0.29770
vn -0.71871 0.62836 0.29770
vn -0.29770 0.62835 0.71872
vn -1.00000 0.00000 -0.00000
vn 0.00000 0.00000 1.00000
vn 0.00000 -1.00000 -0.00000
# 91 vertex normals

vt 0.29690 0.71362 0.00000
vt 0.29690 0.90499 0.00000
vt 0.10522 0.90499 0.00000
vt 0.10522 0.71362 0.00000
vt 0.04187 0.25592 0.00000
vt 0.04187 0.01487 0.00000
vt 0.05785 0.01487 0.00000
vt 0.05785 0.25592 0.00000
vt 0.04187 0.49441 0.00000
vt 0.05766 0.49441 0.00000
vt 0.04187 0.73251 0.00000
vt 0.05766 0.73251 0.00000
vt 0.04187 0.97395 0.00000
vt 0.05785 0.97395 0.00000
vt 0.06979 0.96707 0.00000
vt 0.06979 0.73939 0.00000
vt 0.06945 0.72572 0.00000
vt 0.06945 0.50119 0.00000
vt 0.06945 0.48762 0.00000
vt 0.06945 0.26271 0.00000
vt 0.06979 0.24905 0.00000
vt 0.06979 0.02174 0.00000
vt 0.08715 0.75677 0.00000
vt 0.08715 0.94969 0.00000
vt 0.08662 0.51834 0.00000
vt 0.08662 0.70858 0.00000
vt 0.08659 0.27989 0.00000
vt 0.08659 0.47044 0.00000
vt 0.08717 0.03909 0.00000
vt 0.08717 0.23169 0.00000
vt 0.82149 0.90031 0.00000
vt 0.82149 0.00856 0.00000
vt 0.89273 0.00856 0.00000
vt 0.89273 0.90031 0.00000
vt 0.99347 0.00856 0.00000
vt 0.99347 0.90031 0.00000
vt 0.30555 0.90031 0.00000
vt 0.30555 0.00856 0.00000
vt 0.37679 0.00856 0.00000
vt 0.37679 0.90031 0.00000
vt 0.47753 0.00856 0.00000
vt 0.47753 0.90031 0.00000
vt 0.54877 0.00856 0.00000
vt 0.54877 0.90031 0.00000
vt 0.64951 0.00856 0.00000
vt 0.64951 0.90031 0.00000
vt 0.72075 0.00856 0.00000
vt 0.72075 0.90031 0.00000
vt 0.13560 0.94925 0.00000
vt 0.13560 0.94142 0.00000
vt 0.24278 0.94142 0.00000
vt 0.24278 0.94925 0.00000
vt 0.34997 0.94142 0.00000
vt 0.34997 0.94925 0.00000
vt 0.45715 0.94142 0.00000
vt 0.45715 0.94925 0.00000
vt 0.56433 0.94142 0.00000
vt 0.56433 0.94925 0.00000
vt 0.67151 0.94142 0.00000
vt 0.67151 0.94925 0.00000
vt 0.77869 0.94142 0.00000
vt 0.77869 0.94925 0.00000
vt 0.88587 0.94142 0.00000
vt 0.88587 0.94925 0.00000
vt 0.99305 0.94142 0.00000
vt 0.99305 0.94925 0.00000
vt 0.24278 0.99080 0.00000
vt 0.13560 0.99080 0.00000
vt 0.13560 0.97275 0.00000
vt 0.24278 0.97275 0.00000
vt 0.34997 0.99080 0.00000
vt 0.34997 0.97275 0.00000
vt 0.45715 0.99080 0.00000
vt 0.45715 0.97275 0.00000
vt 0.56433 0.99080 0.00000
vt 0.56433 0.97275 0.00000
vt 0.67151 0.99080 0.00000
vt 0.67151 0.97275 0.00000
vt 0.77869 0.99080 0.00000
vt 0.77869 0.97275 0.00000
vt 0.88587 0.99080 0.00000
vt 0.88587 0.97275 0.00000
vt 0.99305 0.99080 0.00000
vt 0.99305 0.97275 0.00000
vt 0.09409 0.57679 0.00000
vt 0.09409 0.64884 0.00000
vt 0.14503 0.52585 0.00000
vt 0.09410 0.33998 0.00000
vt 0.09410 0.41203 0.00000
vt 0.09644 0.17252 0.00000
vt 0.14801 0.22409 0.00000
vt 0.09644 0.09958 0.00000
vt 0.14801 0.04800 0.00000
vt 0.09606 0.81591 0.00000
vt 0.09606 0.88885 0.00000
vt 0.14503 0.69978 0.00000
vt 0.13560 0.91331 0.00000
vt 0.24278 0.91331 0.00000
vt 0.24278 0.92737 0.00000
vt 0.13560 0.92737 0.00000
vt 0.34997 0.91331 0.00000
vt 0.34997 0.92737 0.00000
vt 0.45715 0.91331 0.00000
vt 0.45715 0.92737 0.00000
vt 0.56433 0.91331 0.00000
vt 0.56433 0.92737 0.00000
vt 0.67151 0.91331 0.00000
vt 0.67151 0.92737 0.00000
vt 0.77869 0.91331 0.00000
vt 0.77869 0.92737 0.00000
vt 0.88587 0.91331 0.00000
vt 0.88587 0.92737 0.00000
vt 0.99305 0.91331 0.00000
vt 0.99305 0.92737 0.00000
vt 0.13560 0.95709 0.00000
vt 0.24278 0.95709 0.00000
vt 0.34997 0.95709 0.00000
vt 0.45715 0.95708 0.00000
vt 0.56433 0.95708 0.00000
vt 0.67151 0.95708 0.00000
vt 0.77869 0.95708 0.00000
vt 0.88587 0.95708 0.00000
vt 0.99305 0.95708 0.00000
vt 0.03182 0.01782 0.00000
vt 0.03891 0.01782 0.00000
vt 0.03891 0.25592 0.00000
vt 0.03182 0.25592 0.00000
vt 0.03891 0.49441 0.00000
vt 0.03182 0.49441 0.00000
vt 0.03891 0.73251 0.00000
vt 0.03182 0.73251 0.00000
vt 0.03891 0.97100 0.00000
vt 0.03182 0.97100 0.00000
vt 0.02427 0.49449 0.00000
vt 0.02427 0.73850 0.00000
vt 0.00587 0.73850 0.00000
vt 0.00587 0.49449 0.00000
vt 0.02427 0.98289 0.00000
vt 0.00587 0.98289 0.00000
vt 0.02427 0.00609 0.00000
vt 0.02427 0.25010 0.00000
vt 0.00587 0.25010 0.00000
vt 0.00587 0.00609 0.00000
vt 0.02722 0.49745 0.00000
vt 0.02722 0.73554 0.00000
vt 0.02722 0.25305 0.00000
vt 0.02722 0.49154 0.00000
vt 0.02722 0.00905 0.00000
vt 0.02722 0.24714 0.00000
vt 0.02722 0.74145 0.00000
vt 0.02722 0.97994 0.00000
# 151 texture coords

g Column_A
usemtl Column_A
s off
f 1/1/1 2/2/1 3/3/1 4/4/1 
f 5/5/2 6/6/3 7/7/4 8/8/5 
f 9/9/6 5/5/2 8/8/5 10/10/7 
f 11/11/8 9/9/6 10/10/7 12/12/9 
f 6/13/3 11/11/8 12/12/9 7/14/4 
f 13/15/10 7/14/4 12/12/9 14/16/11 
f 14/17/11 12/12/9 10/10/7 15/18/12 
f 15/19/12 10/10/7 8/8/5 16/20/13 
f 16/21/13 8/8/5 7/7/4 13/22/10 
f 13/15/10 14/16/11 17/23/14 18/24/15 
f 14/17/11 15/18/12 19/25/16 17/26/14 
f 15/19/12 16/20/13 20/27/17 19/28/16 
f 16/21/13 13/22/10 18/29/15 20/30/17 
f 21/31/18 22/32/18 23/33/6 24/34/6 
f 24/34/19 23/33/19 25/35/20 26/36/20 
f 26/37/20 25/38/20 27/39/8 28/40/8 
f 28/40/21 27/39/21 29/41/21 30/42/21 
f 30/42/3 29/41/3 31/43/22 32/44/22 
f 32/44/22 31/43/22 33/45/23 34/46/23 
f 34/46/23 33/45/23 35/47/24 36/48/24 
f 36/48/24 35/47/24 22/32/18 21/31/18 
f 37/49/25 38/50/25 39/51/26 40/52/27 
f 40/52/27 39/51/26 41/53/28 42/54/29 
f 42/54/29 41/53/28 43/55/30 44/56/30 
f 44/56/30 43/55/30 45/57/31 46/58/32 
f 46/58/32 45/57/31 47/59/33 48/60/33 
f 48/60/33 47/59/33 49/61/34 50/62/34 
f 50/62/34 49/61/34 51/63/35 52/64/35 
f 52/64/35 51/63/35 38/65/25 37/66/25 
f 53/67/36 54/68/37 55/69/38 56/70/39 
f 57/71/40 53/67/36 56/70/39 58/72/41 
f 59/73/42 57/71/40 58/72/41 60/74/43 
f 61/75/44 59/73/42 60/74/43 62/76/45 
f 63/77/46 61/75/44 62/76/45 64/78/47 
f 65/79/48 63/77/46 64/78/47 66/80/49 
f 67/81/50 65/79/48 66/80/49 68/82/51 
f 54/83/37 67/81/50 68/82/51 55/84/38 
f 53/85/36 57/86/40 17/26/14 19/25/16 
f 19/25/16 54/87/37 53/85/36 
f 67/88/50 54/89/37 19/28/16 20/27/17 
f 20/30/17 65/90/48 67/91/50 
f 63/92/46 65/90/48 20/30/17 18/29/15 
f 18/29/15 61/93/44 63/92/46 
f 59/94/42 61/95/44 18/24/15 17/23/14 
f 17/26/14 57/86/40 59/96/42 
f 21/97/52 24/98/53 69/99/53 70/100/52 
f 24/98/53 26/101/54 71/102/54 69/99/53 
f 26/101/54 28/103/55 72/104/55 71/102/54 
f 28/103/55 30/105/56 73/106/57 72/104/55 
f 30/105/56 32/107/58 74/108/58 73/106/57 
f 32/107/58 34/109/59 75/110/59 74/108/58 
f 34/109/59 36/111/60 76/112/61 75/110/59 
f 36/111/60 21/113/52 70/114/52 76/112/61 
f 70/100/62 69/99/63 39/51/63 38/50/62 
f 69/99/63 71/102/64 41/53/64 39/51/63 
f 71/102/64 72/104/65 43/55/65 41/53/64 
f 72/104/65 73/106/66 45/57/67 43/55/65 
f 73/106/66 74/108/68 47/59/69 45/57/67 
f 74/108/68 75/110/70 49/61/70 47/59/69 
f 75/110/70 76/112/71 51/63/72 49/61/70 
f 76/112/71 70/114/62 38/65/62 51/63/72 
f 77/115/73 78/116/74 56/70/39 55/69/38 
f 78/116/74 79/117/75 58/72/41 56/70/39 
f 79/117/75 80/118/76 60/74/43 58/72/41 
f 80/118/76 81/119/77 62/76/45 60/74/43 
f 81/119/77 82/120/78 64/78/47 62/76/45 
f 82/120/78 83/121/79 66/80/49 64/78/47 
f 83/121/79 84/122/80 68/82/51 66/80/49 
f 84/122/80 77/123/73 55/84/38 68/82/51 
f 37/49/81 40/52/82 78/116/74 77/115/73 
f 40/52/82 42/54/83 79/117/75 78/116/74 
f 42/54/83 44/56/84 80/118/76 79/117/75 
f 44/56/84 46/58/85 81/119/77 80/118/76 
f 46/58/85 48/60/86 82/120/78 81/119/77 
f 48/60/86 50/62/87 83/121/79 82/120/78 
f 50/62/87 52/64/88 84/122/80 83/121/79 
f 52/64/88 37/66/81 77/123/73 84/122/80 
f 85/124/89 86/125/89 87/126/89 88/127/89 
f 88/127/90 87/126/90 89/128/90 90/129/90 
f 90/129/19 89/128/19 91/130/19 92/131/19 
f 92/131/21 91/130/21 86/132/21 85/133/21 
f 93/134/89 94/135/89 4/136/89 3/137/89 
f 94/135/90 95/138/90 1/139/90 4/136/90 
f 95/140/19 96/141/19 2/142/19 1/143/19 
f 96/141/21 93/134/21 3/137/21 2/142/21 
f 87/126/1 86/125/1 6/6/1 5/5/1 
f 89/128/1 87/126/1 5/5/1 9/9/1 
f 91/130/1 89/128/1 9/9/1 11/11/1 
f 86/132/1 91/130/1 11/11/1 6/13/1 
f 85/144/91 88/145/91 94/135/91 93/134/91 
f 92/146/91 85/147/91 93/134/91 96/141/91 
f 90/148/91 92/149/91 96/141/91 95/140/91 
f 88/150/91 90/151/91 95/138/91 94/135/91 
# 89 polygons - 4 triangles

