# 3ds Max Wavefront OBJ Exporter v0.97b - (c)2007 guruware
# File Created: 19.02.2016 18:57:33

mtllib Sponza_Box.mtl

#
# object Box
#

v  1804.24280 -126.44251 -1086.77576
v  1804.24280 -126.44251 1086.77576
v  -1804.24280 -126.44251 1086.77576
v  -1804.24280 -126.44251 -1086.77576
v  1806.83789 1352.37561 1089.37085
v  -1806.83789 1352.37561 1089.37085
v  1806.83789 1352.37561 -1089.37085
v  -1806.83789 1352.37561 -1089.37085
v  -1792.69580 -114.89551 1075.22876
v  1792.69580 -114.89551 1075.22876
v  1792.69580 -114.89551 -1075.22876
v  -1792.69580 -114.89551 -1075.22876
v  -1792.69580 1352.37561 1075.22876
v  1792.69580 1352.37561 1075.22876
v  1792.69580 1352.37561 -1075.22876
v  -1792.69580 1352.37561 -1075.22876
# 16 vertices

vn 0.00000 -1.00000 -0.00000
vn 0.00000 -0.00175 1.00000
vn 1.00000 -0.00175 -0.00000
vn 0.00000 -0.00175 -1.00000
vn -1.00000 -0.00175 -0.00000
vn 0.00000 1.00000 -0.00000
vn 0.00000 0.00000 -1.00000
vn -1.00000 0.00000 -0.00000
vn 0.00000 0.00000 1.00000
vn 1.00000 0.00000 -0.00000
# 10 vertex normals

vt 9.23177 2.68575 0.00000
vt 9.23177 -2.81942 0.00000
vt 18.41036 -2.81942 0.00000
vt 18.41036 2.68574 0.00000
vt 9.23177 -6.57563 0.00000
vt 18.41036 -6.57563 0.00000
vt 3.72660 -6.57563 0.00000
vt 3.72660 -2.81942 0.00000
vt -5.45199 -6.57563 0.00000
vt -5.45199 -2.81942 0.00000
vt 23.91553 -6.57564 0.00000
vt 23.91553 -2.81943 0.00000
# 12 texture coords

g Box
usemtl Bricks
s off
f 1/1/1 2/2/1 3/3/1 4/4/1 
f 5/5/2 6/6/2 3/3/2 2/2/2 
f 7/7/3 5/5/3 2/2/3 1/8/3 
f 8/9/4 7/7/4 1/8/4 4/10/4 
f 6/6/5 8/11/5 4/12/5 3/3/5 
f 9/3/6 10/2/6 11/1/6 12/4/6 
f 9/3/7 13/6/7 14/5/7 10/2/7 
f 10/2/8 14/5/8 15/7/8 11/8/8 
f 11/8/9 15/7/9 16/9/9 12/10/9 
f 12/12/10 16/11/10 13/6/10 9/3/10 
f 14/5/6 13/6/6 6/6/6 5/5/6 
f 15/7/6 14/5/6 5/5/6 7/7/6 
f 16/9/6 15/7/6 7/7/6 8/9/6 
f 13/6/6 16/11/6 8/11/6 6/6/6 
# 14 polygons

