# 3ds Max Wavefront OBJ Exporter v0.97b - (c)2007 guruware
# File Created: 19.02.2016 19:33:16

mtllib Column_AL.mtl

#
# object Column_A1
#

v  23.29688 220.99707 -23.29684
v  0.00024 220.99706 -0.00021
v  0.00024 220.99707 53.58127
v  55.68335 220.99707 53.58127
v  55.68335 220.99707 -23.29684
v  55.68335 212.97820 53.58127
v  0.00024 212.97820 53.58127
v  0.00024 207.88805 53.58127
v  55.68335 207.88805 53.58127
v  55.68335 207.88805 -23.29684
v  55.68335 212.97820 -23.29684
v  53.19849 204.08662 51.39096
v  53.19849 204.08662 -21.10654
v  21.10645 204.08662 -21.10648
v  23.29688 207.88805 -23.29684
v  46.91919 201.17207 45.85538
v  46.91919 201.17207 -15.57095
v  0.00024 204.08662 51.39096
v  0.00024 201.17207 45.85538
v  23.97876 186.65132 -10.91733
v  41.14380 186.65132 4.18961
v  41.14380 -2.46069 4.18964
v  23.97876 -2.46069 -10.91730
v  41.14380 186.65132 25.55411
v  41.14380 -2.46069 25.55414
v  23.97876 186.65132 40.66104
v  23.97876 -2.46069 40.66107
v  0.00024 186.65132 40.66104
v  0.00024 -2.46069 40.66107
v  24.71997 192.50014 -12.49185
v  42.93286 192.50014 3.53745
v  41.14380 191.22601 4.18961
v  23.97876 191.22601 -10.91733
v  42.93286 192.50014 26.20627
v  41.14380 191.22601 25.55411
v  24.71997 192.50014 42.23557
v  23.97876 191.22601 40.66104
v  0.00024 192.50014 42.23557
v  0.00024 191.22601 40.66104
v  43.69531 199.26045 3.25949
v  41.69507 196.32253 3.98874
v  24.20728 196.32253 -11.40231
v  25.03564 199.26045 -13.16293
v  43.69531 199.26045 26.48422
v  41.69507 196.32253 25.75497
v  25.03564 199.26045 42.90665
v  24.20728 196.32253 41.14597
v  0.00024 199.26045 42.90665
v  0.00024 196.32253 41.14597
v  13.16284 199.26045 -13.16293
v  15.57104 201.17207 -15.57095
v  13.41235 188.93866 -13.41245
v  25.15308 188.93867 -13.41245
v  10.91724 186.65132 -10.91733
v  43.97900 188.93867 3.15610
v  43.97900 188.93867 26.58762
v  25.15308 188.93867 43.15616
v  10.91724 191.22601 -10.91733
v  11.54102 193.77426 -11.54111
v  11.40234 196.32253 -11.40225
v  24.27271 193.77426 -11.54111
v  41.85254 193.77426 3.93124
v  41.85254 193.77426 25.81247
v  24.27271 193.77426 41.28482
v  12.49194 192.50014 -12.49185
v  54.62842 215.20934 52.65268
v  0.00024 215.20934 52.65268
v  0.00024 212.97820 52.65268
v  54.62842 212.97820 52.65268
v  54.62842 215.20934 -22.36826
v  54.62842 212.97820 -22.36826
v  23.29688 215.20934 -23.29684
v  55.68335 215.20934 -23.29684
v  55.68335 215.20934 53.58127
v  22.36816 215.20934 -22.36826
v  0.00024 188.93866 43.15616
v  0.00024 193.77426 41.28482
v  0.00024 215.20934 53.58127
v  -23.97852 186.65132 40.66104
v  -23.97852 -2.46069 40.66107
v  -24.71973 192.50014 42.23557
v  -23.97852 191.22601 40.66104
v  -25.03540 199.26045 42.90665
v  -24.20679 196.32253 41.14597
v  -34.72852 188.93867 34.72849
v  -32.85181 186.65132 32.85172
v  -25.15259 188.93867 43.15616
v  -32.85181 191.22601 32.85172
v  -33.21655 196.32253 33.21652
v  -33.32104 193.77426 33.32095
v  -24.27222 193.77426 41.28482
v  -34.03613 192.50014 34.03610
v  -51.39087 204.08662 51.39090
v  -53.58130 207.88805 53.58127
v  -45.85547 201.17207 45.85538
v  -45.68970 201.06473 45.68979
v  -53.58130 220.99707 53.58127
v  -53.58130 215.20934 53.58127
v  -52.65259 215.20934 52.65268
v  23.29688 212.97820 -23.29684
v  10.91724 -2.46069 -10.91730
v  22.36816 212.97820 -22.36826
v  -53.58130 212.97820 53.58127
v  -32.85181 -2.46069 32.85175
v  -34.54077 199.26045 34.54080
v  -52.65259 212.97820 52.65268
v  -53.58130 220.99707 -0.00015
v  23.29688 220.99707 -55.68332
v  -53.58130 220.99707 -55.68326
v  -53.58130 212.97820 -55.68326
v  -53.58130 207.88805 -55.68326
v  -53.58130 207.88805 -0.00015
v  -53.58130 212.97820 -0.00015
v  23.29688 212.97820 -55.68332
v  23.29688 207.88805 -55.68332
v  -51.39087 204.08662 -53.19852
v  21.10645 204.08662 -53.19858
v  15.57104 201.17207 -46.91916
v  -45.85547 201.17207 -46.91910
v  -51.39087 204.08662 -0.00015
v  -45.85547 201.17207 -0.00015
v  10.91724 186.65132 -23.97879
v  10.91724 -2.46069 -23.97876
v  -4.18970 -2.46072 -41.14386
v  -4.18970 186.65132 -41.14389
v  -25.55420 -2.46072 -41.14386
v  -25.55420 186.65132 -41.14389
v  -40.66113 -2.46069 -23.97876
v  -40.66113 186.65132 -23.97879
v  -40.66113 -2.46069 -0.00012
v  -40.66113 186.65132 -0.00015
v  12.49194 192.50014 -24.72000
v  10.91724 191.22601 -23.97879
v  -4.18970 191.22601 -41.14389
v  -3.53735 192.50014 -42.93277
v  -25.55420 191.22601 -41.14389
v  -26.20630 192.50014 -42.93277
v  -40.66113 191.22601 -23.97879
v  -42.23560 192.50014 -24.72000
v  -42.23560 192.50014 -0.00015
v  -40.66113 191.22601 -0.00015
v  -3.25952 199.26045 -43.69540
v  13.16284 199.26045 -25.03568
v  11.40234 196.32253 -24.20718
v  -3.98877 196.32253 -41.69498
v  -26.48413 199.26045 -43.69534
v  -25.75488 196.32253 -41.69504
v  -42.90674 199.26045 -25.03568
v  -41.14600 196.32253 -24.20718
v  -42.90674 199.26045 -0.00015
v  -41.14600 196.32253 -0.00015
v  13.41235 188.93867 -25.15317
v  -3.15601 188.93867 -43.97891
v  -26.58765 188.93867 -43.97891
v  -43.15625 188.93867 -25.15311
v  11.54102 193.77426 -24.27261
v  -3.93115 193.77426 -41.85257
v  -25.81250 193.77426 -41.85257
v  -41.28491 193.77426 -24.27261
v  -52.65259 215.20934 -54.62833
v  -52.65259 212.97820 -54.62833
v  -52.65259 212.97820 -0.00015
v  -52.65259 215.20934 -0.00015
v  22.36816 215.20934 -54.62839
v  22.36816 212.97820 -54.62839
v  23.29688 215.20934 -55.68332
v  -53.58130 215.20934 -55.68326
v  -43.15625 188.93866 -0.00015
v  -41.28491 193.77426 -0.00015
v  -53.58130 215.20934 -0.00015
v  -40.66113 186.65132 23.97849
v  -40.66113 -2.46069 23.97852
v  -40.66113 191.22601 23.97849
v  -42.23560 192.50014 24.71970
v  -41.14600 196.32253 24.20676
v  -42.90674 199.26045 25.03537
v  -43.15625 188.93867 25.15268
v  -41.28491 193.77426 24.27231
# 178 vertices

vn -0.00000 1.00000 0.00000
vn -0.00000 1.00000 -0.00000
vn 0.00000 1.00000 -0.00000
vn 0.70711 0.00000 0.70711
vn -0.00000 0.00000 1.00000
vn -0.00000 -0.25840 0.96604
vn 0.67614 -0.30729 0.66963
vn 0.67614 -0.30729 -0.66963
vn 0.70711 -0.00000 -0.70711
vn 0.43757 -0.77284 0.45963
vn 0.43757 -0.77284 -0.45963
vn 0.34327 -0.87426 -0.34327
vn 0.64940 -0.39568 -0.64940
vn 0.19178 -0.95693 0.21796
vn 0.19284 -0.95655 -0.21867
vn -0.00000 -0.72044 0.69351
vn -0.00000 -0.86286 0.50545
vn 0.66067 -0.00000 -0.75068
vn 1.00000 0.00000 0.00000
vn 0.66067 0.00000 0.75068
vn 0.21516 -0.80621 -0.55111
vn 0.51023 -0.83061 -0.22305
vn 0.50276 -0.82985 -0.24205
vn 0.19833 -0.80548 -0.55845
vn 0.51023 -0.83061 0.22305
vn 0.50276 -0.82985 0.24205
vn 0.21516 -0.80621 0.55111
vn 0.19833 -0.80548 0.55845
vn -0.00000 -0.77736 0.62905
vn 0.55876 -0.81614 -0.14731
vn 0.86521 -0.30312 -0.39941
vn 0.33338 -0.27831 -0.90078
vn 0.13858 -0.75068 -0.64597
vn 0.55883 -0.81617 0.14689
vn 0.86521 -0.30312 0.39941
vn 0.13904 -0.78151 0.60820
vn 0.33338 -0.27830 0.90078
vn -0.00000 -0.69453 0.71947
vn -0.00000 -0.24036 0.97069
vn 0.48173 -0.73204 -0.48171
vn 0.31858 -0.89275 -0.31860
vn 0.38462 -0.83912 -0.38462
vn 0.23224 -0.76896 -0.59563
vn 0.21500 -0.76819 -0.60304
vn 0.55409 -0.79636 -0.24249
vn 0.54630 -0.79554 -0.26204
vn 0.55409 -0.79636 0.24249
vn 0.54630 -0.79554 0.26204
vn 0.23224 -0.76896 0.59562
vn 0.21500 -0.76819 0.60304
vn 0.38463 0.83912 -0.38462
vn 0.38463 0.83912 -0.38463
vn 0.21500 0.76819 -0.60303
vn 0.23224 0.76896 -0.59562
vn 0.54630 0.79555 -0.26204
vn 0.55408 0.79636 -0.24249
vn 0.54630 0.79555 0.26204
vn 0.55408 0.79636 0.24249
vn 0.21500 0.76820 0.60303
vn 0.23224 0.76896 0.59562
vn 0.65489 0.37719 -0.65486
vn 0.68141 -0.26704 -0.68144
vn 0.31953 0.39107 -0.86312
vn 0.82274 0.42293 -0.37978
vn 0.82274 0.42293 0.37978
vn 0.31953 0.39108 0.86311
vn 0.48632 0.72590 -0.48638
vn 0.27940 0.63530 -0.71995
vn 0.68028 0.66921 -0.29895
vn 0.68029 0.66921 0.29895
vn 0.27940 0.63530 0.71995
vn 0.00000 -0.00000 -1.00000
vn -0.00000 -1.00000 0.00000
vn -0.00000 -0.73713 0.67575
vn -0.00000 0.73713 0.67575
vn -0.00000 0.34078 0.94014
vn -0.00000 0.59805 0.80146
vn -0.21516 -0.80621 0.55111
vn -0.19833 -0.80548 0.55845
vn -0.13904 -0.78152 0.60819
vn -0.33338 -0.27831 0.90078
vn -0.46162 -0.75751 0.46162
vn -0.46162 -0.75750 0.46162
vn -0.21502 -0.76818 0.60304
vn -0.23224 -0.76895 0.59564
vn -0.21502 0.76819 0.60304
vn -0.46162 0.75751 0.46162
vn -0.23224 0.76895 0.59564
vn -0.68370 -0.25514 0.68370
vn -0.65955 0.36054 0.65955
vn -0.31950 0.39110 0.86311
vn -0.55384 0.62170 0.55385
vn -0.27941 0.63533 0.71992
vn -0.46238 -0.75658 0.46238
vn -0.67558 -0.29529 0.67558
vn -0.25982 -0.93005 0.25981
vn -0.24844 -0.93615 0.24878
vn 0.35115 -0.86797 -0.35118
vn 0.35117 -0.86797 -0.35116
vn -0.70711 0.00000 0.70711
vn -0.66067 0.00000 0.75068
vn -0.42811 -0.79589 0.42811
vn -0.36575 -0.85584 0.36575
vn 0.00000 1.00000 0.00000
vn -0.70711 -0.00000 -0.70711
vn -0.66964 -0.30729 -0.67614
vn -0.96604 -0.25841 -0.00000
vn -1.00000 0.00000 -0.00000
vn 0.66963 -0.30729 -0.67614
vn -0.45962 -0.77284 -0.43758
vn 0.45962 -0.77284 -0.43758
vn 0.21868 -0.95655 -0.19283
vn -0.21797 -0.95693 -0.19177
vn -0.69351 -0.72045 -0.00000
vn -0.50545 -0.86285 0.00000
vn 0.75068 -0.00000 -0.66067
vn -0.75068 -0.00000 -0.66067
vn 0.55108 -0.80624 -0.21514
vn 0.55841 -0.80551 -0.19832
vn 0.24204 -0.82984 -0.50278
vn 0.22307 -0.83060 -0.51024
vn -0.24207 -0.82982 -0.50279
vn -0.22307 -0.83058 -0.51026
vn -0.55846 -0.80547 -0.19833
vn -0.55112 -0.80621 -0.21517
vn -0.62907 -0.77735 0.00000
vn 0.14730 -0.81614 -0.55876
vn 0.64596 -0.75069 -0.13859
vn 0.90078 -0.27832 -0.33337
vn 0.39941 -0.30311 -0.86522
vn -0.14689 -0.81617 -0.55883
vn -0.39940 -0.30311 -0.86522
vn -0.60819 -0.78152 -0.13904
vn -0.90078 -0.27831 -0.33338
vn -0.71946 -0.69453 -0.00000
vn -0.97069 -0.24035 -0.00000
vn 0.60303 -0.76820 -0.21500
vn 0.59562 -0.76896 -0.23224
vn 0.26203 -0.79554 -0.54631
vn 0.24250 -0.79635 -0.55409
vn -0.26205 -0.79553 -0.54632
vn -0.24250 -0.79634 -0.55411
vn -0.60304 -0.76819 -0.21500
vn -0.59563 -0.76896 -0.23224
vn 0.59562 0.76896 -0.23224
vn 0.60303 0.76820 -0.21500
vn 0.24250 0.79635 -0.55409
vn 0.26203 0.79554 -0.54631
vn -0.24250 0.79634 -0.55410
vn -0.26205 0.79553 -0.54632
vn -0.59562 0.76896 -0.23224
vn -0.60303 0.76819 -0.21500
vn 0.86310 0.39110 -0.31952
vn 0.37978 0.42293 -0.82274
vn -0.37978 0.42292 -0.82274
vn -0.86311 0.39108 -0.31951
vn 0.71989 0.63538 -0.27938
vn 0.29897 0.66917 -0.68031
vn -0.29897 0.66917 -0.68031
vn -0.71995 0.63530 -0.27941
vn -0.00000 -0.00000 -1.00000
vn -0.67575 -0.73713 -0.00000
vn -0.67575 0.73713 -0.00000
vn -0.94014 0.34078 -0.00000
vn -0.80148 0.59802 -0.00000
vn -0.55846 -0.80547 0.19833
vn -0.55112 -0.80621 0.21517
vn -0.90078 -0.27830 0.33338
vn -0.60819 -0.78152 0.13904
vn -0.59563 -0.76895 0.23224
vn -0.60304 -0.76819 0.21501
vn -0.60304 0.76819 0.21501
vn -0.59563 0.76895 0.23224
vn -0.86311 0.39109 0.31952
vn -0.71995 0.63530 0.27941
vn -0.75068 0.00000 0.66067
# 176 vertex normals

vt 0.29690 0.83392 0.00000
vt 0.23882 0.78280 0.00000
vt 0.10522 0.78280 0.00000
vt 0.10522 0.90499 0.00000
vt 0.29690 0.90499 0.00000
vt 0.04187 0.01487 0.00000
vt 0.04187 0.16878 0.00000
vt 0.05785 0.16878 0.00000
vt 0.05785 0.01487 0.00000
vt 0.04187 0.97395 0.00000
vt 0.05785 0.97395 0.00000
vt 0.05766 0.73251 0.00000
vt 0.04187 0.73251 0.00000
vt 0.06979 0.96707 0.00000
vt 0.06979 0.73939 0.00000
vt 0.06945 0.72572 0.00000
vt 0.06945 0.63811 0.00000
vt 0.05766 0.64409 0.00000
vt 0.08715 0.94969 0.00000
vt 0.08715 0.75677 0.00000
vt 0.06979 0.16878 0.00000
vt 0.08717 0.16878 0.00000
vt 0.08717 0.03909 0.00000
vt 0.06979 0.02174 0.00000
vt 0.99674 0.90049 0.00000
vt 0.89291 0.90049 0.00000
vt 0.89291 0.00910 0.00000
vt 0.99674 0.00910 0.00000
vt 0.80485 0.90049 0.00000
vt 0.80485 0.00910 0.00000
vt 0.71845 0.90049 0.00000
vt 0.64899 0.90049 0.00000
vt 0.64899 0.00910 0.00000
vt 0.71845 0.00910 0.00000
vt 0.47500 0.90049 0.00000
vt 0.47500 0.00910 0.00000
vt 0.34997 0.94925 0.00000
vt 0.45715 0.94925 0.00000
vt 0.45715 0.94142 0.00000
vt 0.34997 0.94142 0.00000
vt 0.56433 0.94925 0.00000
vt 0.56433 0.94142 0.00000
vt 0.67151 0.94925 0.00000
vt 0.67151 0.94142 0.00000
vt 0.77437 0.94925 0.00000
vt 0.77738 0.94142 0.00000
vt 0.45715 0.99080 0.00000
vt 0.45715 0.97275 0.00000
vt 0.34997 0.97275 0.00000
vt 0.34997 0.99080 0.00000
vt 0.56433 0.99080 0.00000
vt 0.56433 0.97275 0.00000
vt 0.67151 0.99080 0.00000
vt 0.67151 0.97275 0.00000
vt 0.77319 0.99080 0.00000
vt 0.77642 0.97275 0.00000
vt 0.09409 0.64884 0.00000
vt 0.09409 0.61642 0.00000
vt 0.08662 0.62300 0.00000
vt 0.08662 0.70858 0.00000
vt 0.09644 0.09958 0.00000
vt 0.14801 0.04800 0.00000
vt 0.09606 0.81591 0.00000
vt 0.09606 0.88885 0.00000
vt 0.14503 0.69978 0.00000
vt 0.30270 0.92737 0.00000
vt 0.34997 0.92737 0.00000
vt 0.34997 0.91331 0.00000
vt 0.29230 0.91331 0.00000
vt 0.45715 0.92737 0.00000
vt 0.45715 0.91331 0.00000
vt 0.56433 0.92737 0.00000
vt 0.56433 0.91331 0.00000
vt 0.67151 0.92737 0.00000
vt 0.67151 0.91331 0.00000
vt 0.29230 0.94142 0.00000
vt 0.29508 0.95709 0.00000
vt 0.29447 0.97275 0.00000
vt 0.34997 0.95709 0.00000
vt 0.45715 0.95708 0.00000
vt 0.56433 0.95708 0.00000
vt 0.67151 0.95708 0.00000
vt 0.29908 0.94925 0.00000
vt 0.03182 0.01782 0.00000
vt 0.03182 0.17066 0.00000
vt 0.03891 0.17066 0.00000
vt 0.03891 0.01782 0.00000
vt 0.03182 0.73251 0.00000
vt 0.03182 0.97100 0.00000
vt 0.03891 0.97100 0.00000
vt 0.03891 0.73251 0.00000
vt 0.02427 0.15948 0.00000
vt 0.00587 0.15948 0.00000
vt 0.00587 0.25010 0.00000
vt 0.02427 0.25010 0.00000
vt 0.00587 0.49449 0.00000
vt 0.02427 0.49449 0.00000
vt 0.02722 0.25305 0.00000
vt 0.02722 0.49154 0.00000
vt 0.02722 0.24714 0.00000
vt 0.02722 0.15689 0.00000
vt 0.09644 0.16878 0.00000
vt 0.77277 0.92737 0.00000
vt 0.77738 0.91331 0.00000
vt 0.77615 0.95708 0.00000
vt 0.02427 0.65029 0.00000
vt 0.00587 0.65029 0.00000
vt 0.02722 0.49745 0.00000
vt 0.02722 0.65029 0.00000
vt 0.36975 0.90049 0.00000
vt 0.36975 0.00910 0.00000
vt 0.61699 0.92737 0.00000
vt 0.61610 0.91331 0.00000
vt 0.61610 0.94142 0.00000
vt 0.61629 0.97275 0.00000
vt 0.61634 0.95708 0.00000
vt 0.61668 0.94925 0.00000
vt 0.06979 0.02673 0.00000
vt 0.05785 0.02068 0.00000
vt 0.08717 0.04203 0.00000
vt 0.08769 0.04249 0.00000
vt 0.00587 0.50037 0.00000
vt 0.02427 0.50037 0.00000
vt 0.02722 0.50297 0.00000
vt 0.04187 0.64409 0.00000
vt 0.35626 0.90049 0.00000
vt 0.31774 0.90049 0.00000
vt 0.31774 0.00910 0.00000
vt 0.35626 0.00910 0.00000
vt 0.30174 0.99080 0.00000
vt 0.03182 0.64225 0.00000
vt 0.03891 0.64225 0.00000
vt 0.10522 0.90037 0.00000
vt 0.04187 0.02068 0.00000
vt 0.31608 0.00910 0.00000
vt 0.31608 0.90049 0.00000
vt 0.61691 0.99080 0.00000
vt 0.12271 0.07331 0.00000
vt 0.03891 0.02335 0.00000
vt 0.03182 0.02335 0.00000
vt 0.38001 0.90049 0.00000
vt 0.38001 0.00910 0.00000
vt 0.48001 0.00910 0.00000
vt 0.48001 0.90049 0.00000
vt 0.54716 0.00910 0.00000
vt 0.54716 0.90049 0.00000
vt 0.64666 0.00910 0.00000
vt 0.64666 0.90049 0.00000
vt 0.74318 0.00910 0.00000
vt 0.74318 0.90049 0.00000
vt 0.89307 0.90049 0.00000
vt 0.89307 0.00910 0.00000
vt 0.33142 0.90049 0.00000
vt 0.33142 0.00910 0.00000
vt 0.99719 0.00910 0.00000
vt 0.99719 0.90049 0.00000
# 156 texture coords

g Column_A1
usemtl Column_A
s off
f 1/1/1 2/2/1 3/3/2 4/4/3 5/5/3 
f 6/6/4 7/7/5 8/8/6 9/9/7 
f 6/10/4 9/11/7 10/12/8 11/13/9 
f 12/14/10 13/15/11 10/12/8 9/11/7 
f 13/16/11 14/17/12 15/18/13 10/12/8 
f 12/14/10 16/19/14 17/20/15 13/15/11 
f 18/21/16 19/22/17 16/23/14 12/24/10 
f 20/25/18 21/26/18 22/27/18 23/28/18 
f 21/26/19 24/29/19 25/30/19 22/27/19 
f 24/31/20 26/32/20 27/33/20 25/34/20 
f 26/32/5 28/35/5 29/36/5 27/33/5 
f 30/37/21 31/38/22 32/39/23 33/40/24 
f 31/38/22 34/41/25 35/42/26 32/39/23 
f 34/41/25 36/43/27 37/44/28 35/42/26 
f 38/45/29 39/46/29 37/44/28 36/43/27 
f 40/47/30 41/48/31 42/49/32 43/50/33 
f 44/51/34 45/52/35 41/48/31 40/47/30 
f 46/53/36 47/54/37 45/52/35 44/51/34 
f 48/55/38 49/56/39 47/54/37 46/53/36 
f 43/57/33 50/58/40 51/59/41 17/60/15 
f 16/23/14 46/61/36 44/62/34 
f 40/63/30 17/20/15 16/19/14 44/64/34 
f 17/60/15 40/65/30 43/57/33 
f 52/66/42 53/67/43 20/68/44 54/69/42 
f 20/68/44 53/67/43 55/70/45 21/71/46 
f 21/71/46 55/70/45 56/72/47 24/73/48 
f 24/73/48 56/72/47 57/74/49 26/75/50 
f 52/66/51 58/76/52 33/40/53 53/67/54 
f 53/67/54 33/40/53 32/39/55 55/70/56 
f 55/70/56 32/39/55 35/42/57 56/72/58 
f 56/72/58 35/42/57 37/44/59 57/74/60 
f 59/77/61 60/78/62 42/49/32 61/79/63 
f 61/79/63 42/49/32 41/48/31 62/80/64 
f 62/80/64 41/48/31 45/52/35 63/81/65 
f 63/81/65 45/52/35 47/54/37 64/82/66 
f 65/83/67 59/77/61 61/79/63 30/37/68 
f 30/37/68 61/79/63 62/80/64 31/38/69 
f 31/38/69 62/80/64 63/81/65 34/41/70 
f 34/41/70 63/81/65 64/82/66 36/43/71 
f 66/84/5 67/85/5 68/86/5 69/87/5 
f 70/88/19 66/89/19 69/90/19 71/91/19 
f 72/92/72 1/93/72 5/94/72 73/95/72 
f 73/95/19 5/94/19 4/96/19 74/97/19 
f 69/87/3 68/86/3 7/7/3 6/6/3 
f 69/90/3 6/10/3 11/13/3 71/91/3 
f 70/98/73 73/95/73 74/97/73 66/99/73 
f 70/100/73 75/101/73 72/92/73 73/95/73 
f 12/24/10 9/9/7 8/8/6 18/21/16 
f 46/61/36 16/23/14 19/22/17 48/102/38 
f 26/75/50 57/74/49 76/103/74 28/104/74 
f 76/103/75 57/74/60 37/44/59 39/46/75 
f 77/105/76 64/82/66 47/54/37 49/56/39 
f 38/45/77 36/43/71 64/82/66 77/105/76 
f 78/106/5 74/97/5 4/96/5 3/107/5 
f 66/108/73 74/97/73 78/106/73 67/109/73 
f 79/110/5 80/111/5 29/36/5 28/35/5 
f 38/45/29 81/43/78 82/44/79 39/46/29 
f 48/55/38 83/53/80 84/54/81 49/56/39 
f 85/112/82 86/113/83 79/75/84 87/74/85 
f 82/44/86 88/114/87 85/112/87 87/74/88 
f 84/54/81 89/115/89 90/116/90 91/82/91 
f 91/82/91 90/116/90 92/117/92 81/43/93 
f 93/118/94 18/21/16 8/8/6 94/119/95 
f 95/120/96 96/121/97 83/61/80 48/102/38 19/22/17 
f 79/75/84 28/104/74 76/103/74 87/74/85 
f 76/103/75 39/46/75 82/44/86 87/74/88 
f 77/105/76 49/56/39 84/54/81 91/82/91 
f 38/45/77 77/105/76 91/82/91 81/43/93 
f 97/122/5 98/123/5 78/106/5 3/107/5 
f 99/124/73 67/109/73 78/106/73 98/123/73 
f 100/125/9 11/13/9 10/12/8 15/18/13 
f 14/17/12 13/16/11 17/60/15 51/59/41 
f 54/126/72 20/127/72 23/128/72 101/129/72 
f 65/83/98 30/37/21 33/40/24 58/76/99 
f 50/130/40 43/50/33 42/49/32 60/78/62 
f 75/131/72 70/88/72 71/91/72 102/132/72 
f 71/91/3 11/13/3 100/125/3 102/132/3 
f 2/2/1 97/133/3 3/3/2 
f 94/119/95 8/8/6 7/7/5 103/134/100 
f 95/120/96 19/22/17 18/21/16 93/118/94 
f 104/135/100 80/111/101 79/110/101 86/136/100 
f 82/44/79 81/43/78 92/117/102 88/114/102 
f 84/54/81 83/53/80 105/137/103 89/115/89 
f 96/121/97 105/138/103 83/61/80 
f 106/139/5 68/86/5 67/85/5 99/140/5 
f 7/7/3 68/86/3 106/139/3 103/134/3 
f 107/3/104 2/2/1 1/1/1 108/5/3 109/4/3 
f 110/6/105 111/9/106 112/8/107 113/7/108 
f 110/10/105 114/13/9 115/12/109 111/11/106 
f 116/14/110 111/11/106 115/12/109 117/15/111 
f 117/16/111 115/12/109 15/18/13 14/17/12 
f 116/14/110 117/15/111 118/20/112 119/19/113 
f 120/21/114 116/24/110 119/23/113 121/22/115 
f 122/141/116 123/142/116 124/143/116 125/144/116 
f 125/144/72 124/143/72 126/145/72 127/146/72 
f 127/146/117 126/145/117 128/147/117 129/148/117 
f 129/148/108 128/147/108 130/149/108 131/150/108 
f 132/37/118 133/40/119 134/39/120 135/38/121 
f 135/38/121 134/39/120 136/42/122 137/41/123 
f 137/41/123 136/42/122 138/44/124 139/43/125 
f 140/45/126 139/43/125 138/44/124 141/46/126 
f 142/47/127 143/50/128 144/49/129 145/48/130 
f 146/51/131 142/47/127 145/48/130 147/52/132 
f 148/53/133 146/51/131 147/52/132 149/54/134 
f 150/55/135 148/53/133 149/54/134 151/56/136 
f 143/57/128 118/60/112 51/59/41 50/58/40 
f 119/23/113 146/62/131 148/61/133 
f 142/63/127 146/64/131 119/19/113 118/20/112 
f 118/60/112 143/57/128 142/65/127 
f 52/66/42 54/69/42 122/68/137 152/67/138 
f 122/68/137 125/71/139 153/70/140 152/67/138 
f 125/71/139 127/73/141 154/72/142 153/70/140 
f 127/73/141 129/75/143 155/74/144 154/72/142 
f 52/66/51 152/67/145 133/40/146 58/76/52 
f 152/67/145 153/70/147 134/39/148 133/40/146 
f 153/70/147 154/72/149 136/42/150 134/39/148 
f 154/72/149 155/74/151 138/44/152 136/42/150 
f 59/77/61 156/79/153 144/49/129 60/78/62 
f 156/79/153 157/80/154 145/48/130 144/49/129 
f 157/80/154 158/81/155 147/52/132 145/48/130 
f 158/81/155 159/82/156 149/54/134 147/52/132 
f 65/83/67 132/37/157 156/79/153 59/77/61 
f 132/37/157 135/38/158 157/80/154 156/79/153 
f 135/38/158 137/41/159 158/81/155 157/80/154 
f 137/41/159 139/43/160 159/82/156 158/81/155 
f 160/84/108 161/87/108 162/86/108 163/85/108 
f 164/88/161 165/91/161 161/90/161 160/89/161 
f 72/92/19 166/95/19 108/94/19 1/93/19 
f 166/95/161 167/97/161 109/96/161 108/94/161 
f 161/87/3 110/6/3 113/7/3 162/86/3 
f 161/90/3 165/91/3 114/13/3 110/10/3 
f 164/98/73 160/99/73 167/97/73 166/95/73 
f 164/100/73 166/95/73 72/92/73 75/101/73 
f 116/24/110 120/21/114 112/8/107 111/9/106 
f 148/61/133 150/102/135 121/22/115 119/23/113 
f 129/75/143 131/104/162 168/103/162 155/74/144 
f 168/103/163 141/46/163 138/44/152 155/74/151 
f 169/105/164 151/56/136 149/54/134 159/82/156 
f 140/45/165 169/105/164 159/82/156 139/43/160 
f 170/106/108 107/107/108 109/96/108 167/97/108 
f 160/108/73 163/109/73 170/106/73 167/97/73 
f 171/151/108 131/150/108 130/149/108 172/152/108 
f 140/45/126 141/46/126 173/44/166 174/43/167 
f 150/55/135 151/56/136 175/54/168 176/53/169 
f 85/112/82 177/74/170 171/75/171 86/113/83 
f 173/44/172 177/74/173 85/112/87 88/114/87 
f 175/54/168 178/82/174 90/116/90 89/115/89 
f 178/82/174 174/43/175 92/117/92 90/116/90 
f 93/118/94 94/119/95 112/8/107 120/21/114 
f 176/61/169 96/121/97 95/120/96 121/22/115 150/102/135 
f 171/75/171 177/74/170 168/103/162 131/104/162 
f 168/103/163 177/74/173 173/44/172 141/46/163 
f 169/105/164 178/82/174 175/54/168 151/56/136 
f 140/45/165 174/43/175 178/82/174 169/105/164 
f 97/122/108 107/107/108 170/106/108 98/123/108 
f 99/124/73 98/123/73 170/106/73 163/109/73 
f 100/125/9 15/18/13 115/12/109 114/13/9 
f 14/17/12 51/59/41 118/60/112 117/16/111 
f 54/153/19 101/154/19 123/142/19 122/141/19 
f 65/83/98 58/76/99 133/40/119 132/37/118 
f 50/130/40 60/78/62 144/49/129 143/50/128 
f 75/131/19 102/132/19 165/91/19 164/88/19 
f 165/91/3 102/132/3 100/125/3 114/13/3 
f 2/2/1 107/3/104 97/133/3 
f 94/119/95 103/134/100 113/7/108 112/8/107 
f 95/120/96 93/118/94 120/21/114 121/22/115 
f 104/155/100 86/156/100 171/151/176 172/152/176 
f 173/44/166 88/114/102 92/117/102 174/43/167 
f 175/54/168 89/115/89 105/137/103 176/53/169 
f 96/121/97 176/61/169 105/138/103 
f 106/139/108 99/140/108 163/85/108 162/86/108 
f 113/7/3 103/134/3 106/139/3 162/86/3 
# 164 polygons - 8 triangles

