# 3ds Max Wavefront OBJ Exporter v0.97b - (c)2007 guruware
# File Created: 19.02.2016 20:03:57

mtllib Column_B.mtl

#
# object Column_B
#

v  35.24030 188.18271 -34.42233
v  34.42719 188.18271 -35.23550
v  -34.42737 188.18271 -35.23550
v  -35.24060 188.18271 -34.42233
v  -35.24060 188.18271 34.42233
v  -34.42737 188.18271 35.23550
v  34.42719 188.18271 35.23550
v  35.24030 188.18271 34.42233
v  -27.19543 153.22327 -27.93753
v  27.19550 153.22327 -27.93753
v  27.26971 13.20224 -27.93753
v  -27.26965 13.20224 -27.93753
v  27.94135 153.22327 -27.19168
v  27.94135 153.22327 27.19168
v  27.94135 13.20224 27.26584
v  27.94135 13.20224 -27.26584
v  27.19550 153.22327 27.93753
v  -27.19543 153.22327 27.93753
v  -27.26965 13.20224 27.93753
v  27.26971 13.20224 27.93753
v  -27.94153 153.22327 27.19168
v  -27.94153 153.22327 -27.19168
v  -27.94153 13.20224 -27.26584
v  -27.94153 13.20224 27.26584
v  -27.77893 157.09192 -28.50687
v  -28.60071 163.55632 -29.28305
v  28.60089 163.55630 -29.28305
v  27.77887 157.09192 -28.50687
v  28.51093 157.09192 -27.77487
v  29.28705 163.55630 -28.59677
v  29.28705 163.55630 28.59677
v  28.51093 157.09192 27.77487
v  27.77887 157.09192 28.50687
v  28.60089 163.55630 29.28311
v  -28.60071 163.55630 29.28311
v  -27.77893 157.09192 28.50687
v  -28.51086 157.09192 27.77487
v  -29.28723 163.55630 28.59677
v  -29.28723 163.55632 -28.59677
v  -28.51086 157.09192 -27.77487
v  -34.50500 183.81961 -35.23550
v  34.50494 183.81961 -35.23550
v  34.54022 179.45651 -35.23550
v  -34.54041 179.45651 -35.23550
v  35.24030 183.81961 -34.50009
v  35.24030 183.81961 34.50009
v  35.24030 179.45651 34.53537
v  35.24030 179.45651 -34.53537
v  34.50494 183.81961 35.23550
v  -34.50500 183.81961 35.23550
v  -34.54041 179.45651 35.23550
v  34.54022 179.45651 35.23550
v  -35.24060 183.81961 34.50009
v  -35.24060 183.81961 -34.50009
v  -35.24060 179.45651 -34.53537
v  -35.24060 179.45651 34.53537
v  -29.31946 155.15759 -30.13351
v  29.31952 155.15759 -30.13351
v  30.13776 155.15759 -29.31540
v  30.13776 155.15759 29.31540
v  29.31952 155.15759 30.13351
v  -29.31946 155.15759 30.13351
v  -30.13782 155.15759 29.31540
v  -30.13782 155.15759 -29.31540
v  -36.47302 186.00116 -37.28091
v  36.47284 186.00116 -37.28091
v  37.28619 186.00116 -36.46774
v  37.28619 186.00116 36.46774
v  36.47284 186.00116 37.28091
v  -36.47302 186.00116 37.28091
v  -37.28625 186.00116 36.46774
v  -37.28625 186.00116 -36.46774
v  -31.20203 172.55530 -31.91153
v  31.20209 172.55527 -31.91153
v  31.91595 172.55527 -31.19760
v  31.91595 172.55527 31.19760
v  31.20209 172.55527 31.91153
v  -31.20203 172.55527 31.91153
v  -31.91614 172.55527 31.19760
v  -31.91614 172.55530 -31.19760
v  -35.49573 4.70068 -34.63815
v  -35.49573 4.70068 34.63815
v  -28.55725 11.62418 27.86728
v  -28.55725 11.62418 -27.86728
v  -34.64319 4.70068 35.49081
v  -27.87146 11.62415 28.55325
v  34.64313 4.70068 35.49081
v  27.87128 11.62415 28.55325
v  35.49567 4.70068 34.63815
v  28.55719 11.62418 27.86728
v  35.49567 4.70068 -34.63815
v  28.55719 11.62418 -27.86728
v  34.64313 4.70068 -35.49081
v  27.87128 11.62415 -28.55325
v  -34.64319 4.70068 -35.49081
v  -27.87146 11.62415 -28.55325
v  -36.95251 2.35025 -35.24142
v  -36.95251 2.35025 35.24142
v  -36.95251 4.70068 35.24142
v  -36.95251 4.70068 -35.24142
v  -35.24646 2.35025 36.94742
v  -35.24646 4.70068 36.94742
v  35.24640 2.35025 36.94742
v  35.24640 4.70068 36.94742
v  36.95233 2.35025 35.24155
v  36.95233 4.70068 35.24155
v  36.95233 2.35025 -35.24136
v  36.95233 4.70068 -35.24136
v  35.24640 2.35025 -36.94748
v  35.24640 4.70068 -36.94748
v  -35.24646 2.35025 -36.94742
v  -35.24646 4.70068 -36.94742
v  -29.06921 12.41321 28.36667
v  -29.06921 12.41321 -28.36667
v  28.37067 12.41321 29.06516
v  -28.37073 12.41321 29.06516
v  29.06915 12.41321 -28.36667
v  29.06915 12.41321 28.36667
v  -28.37073 12.41321 -29.06522
v  28.37067 12.41321 -29.06522
v  -35.49573 2.35025 -34.63815
v  -35.49573 -0.00018 -34.63815
v  -35.49573 -0.00018 34.63815
v  -35.49573 2.35025 34.63815
v  -34.64319 -0.00018 35.49081
v  -34.64319 2.35025 35.49081
v  34.64313 -0.00018 35.49081
v  34.64313 2.35025 35.49081
v  35.49567 -0.00018 34.63815
v  35.49567 2.35025 34.63815
v  35.49567 -0.00018 -34.63815
v  35.49567 2.35025 -34.63815
v  34.64313 -0.00018 -35.49081
v  34.64313 2.35025 -35.49081
v  -34.64319 -0.00018 -35.49081
v  -34.64319 2.35025 -35.49081
# 136 vertices

vn 0.00000 1.00000 -0.00000
vn 0.00000 0.00000 -1.00000
vn 1.00000 0.00000 -0.00000
vn 0.00000 0.00000 1.00000
vn -1.00000 0.00000 -0.00000
vn -0.00000 -0.11921 -0.99287
vn -0.00000 -0.21021 -0.97766
vn 0.00000 -0.11921 -0.99287
vn 0.99287 -0.11921 -0.00000
vn 0.97765 -0.21023 -0.00000
vn 0.00000 -0.11922 0.99287
vn 0.00000 -0.21021 0.97766
vn -0.99287 -0.11924 -0.00000
vn -0.97765 -0.21024 -0.00000
vn 0.00000 -0.75040 -0.66099
vn 0.66091 -0.75046 -0.00000
vn 0.00000 -0.75040 0.66099
vn -0.66093 -0.75044 -0.00000
vn 0.00000 0.64361 -0.76535
vn 0.76532 0.64366 -0.00000
vn 0.00000 0.64361 0.76535
vn -0.76529 0.64368 -0.00000
vn 0.00000 -0.68398 -0.72950
vn 0.72942 -0.68407 -0.00000
vn 0.00000 -0.68398 0.72950
vn -0.72946 -0.68402 -0.00000
vn 0.00000 0.68398 -0.72950
vn 0.72942 0.68407 -0.00000
vn 0.72942 0.68406 -0.00000
vn 0.00000 0.68398 0.72950
vn -0.72946 0.68402 -0.00000
vn -0.00000 -0.37432 -0.92730
vn 0.00000 -0.43394 -0.90094
vn -0.00000 -0.43394 -0.90094
vn 0.92729 -0.37435 -0.00000
vn 0.90092 -0.43398 -0.00000
vn 0.00000 -0.37431 0.92730
vn 0.00000 -0.43394 0.90094
vn -0.92728 -0.37436 -0.00000
vn -0.90092 -0.43399 -0.00000
vn 0.70711 0.00037 -0.70711
vn 0.70714 0.00037 -0.70707
vn -0.62234 -0.47455 -0.62249
vn -0.62233 -0.47456 -0.62249
vn -0.58398 -0.56380 -0.58404
vn -0.58398 -0.56380 -0.58403
vn 0.70711 0.00037 0.70711
vn 0.70714 0.00037 0.70707
vn -0.70699 0.00037 0.70722
vn -0.70701 0.00037 0.70720
vn 0.67936 -0.27767 -0.67924
vn 0.69652 -0.17221 -0.69656
vn 0.69651 -0.17221 -0.69657
vn -0.70701 0.00037 -0.70720
vn -0.70699 0.00037 -0.70722
vn 0.67938 -0.27769 0.67921
vn 0.67939 -0.27769 0.67921
vn 0.69653 -0.17219 0.69656
vn 0.69652 -0.17219 0.69657
vn -0.67921 -0.27768 0.67938
vn -0.67921 -0.27769 0.67939
vn -0.69656 -0.17219 0.69653
vn -0.69657 -0.17219 0.69652
vn -0.70702 0.00573 -0.70718
vn -0.70701 0.00574 -0.70718
vn -0.70706 0.00572 -0.70713
vn 0.70712 0.00572 -0.70707
vn 0.70713 0.00572 -0.70706
vn 0.70712 0.00572 0.70707
vn 0.70713 0.00572 0.70706
vn -0.70702 0.00572 0.70718
vn -0.70701 0.00572 0.70718
vn -0.70706 0.00573 0.70713
vn -0.70706 0.00574 0.70713
vn 0.46216 0.75681 -0.46222
vn 0.46216 0.75681 -0.46223
vn 0.46217 0.75681 -0.46221
vn -0.46214 0.75682 -0.46224
vn -0.46211 0.75682 -0.46225
vn -0.46220 0.75680 -0.46220
vn -0.46222 0.75679 -0.46219
vn 0.46216 0.75681 0.46222
vn 0.46217 0.75681 0.46222
vn 0.46217 0.75680 0.46221
vn -0.46215 0.75680 0.46225
vn -0.46213 0.75679 0.46227
vn -0.46218 0.75682 0.46219
vn -0.46220 0.75682 0.46216
vn 0.37829 -0.84486 -0.37830
vn 0.37829 -0.84486 -0.37829
vn 0.37827 -0.84486 -0.37831
vn 0.37826 -0.84487 -0.37832
vn -0.37823 -0.84486 -0.37836
vn -0.37824 -0.84486 -0.37835
vn 0.37828 -0.84486 0.37829
vn 0.37829 -0.84487 0.37829
vn 0.37827 -0.84486 0.37832
vn -0.37823 -0.84486 0.37835
vn -0.37823 -0.84486 0.37836
vn -0.37824 -0.84486 0.37835
vn -0.43093 -0.79282 -0.43097
vn -0.43093 -0.79282 -0.43096
vn -0.43091 -0.79281 -0.43100
vn -0.43090 -0.79281 -0.43101
vn 0.43091 -0.79283 -0.43098
vn 0.43089 -0.79283 -0.43099
vn 0.43096 -0.79282 -0.43095
vn 0.43097 -0.79281 -0.43094
vn 0.43092 -0.79282 0.43099
vn 0.43091 -0.79281 0.43100
vn 0.43095 -0.79283 0.43094
vn 0.43096 -0.79283 0.43092
vn -0.43093 -0.79281 0.43098
vn -0.43094 -0.79281 0.43097
vn -0.43090 -0.79282 0.43100
vn -0.43089 -0.79282 0.43100
vn -0.42574 0.79842 -0.42577
vn 0.42574 0.79843 -0.42574
vn 0.42575 0.79843 -0.42572
vn 0.42571 0.79842 -0.42579
vn 0.42571 0.79842 -0.42580
vn 0.42575 0.79842 0.42575
vn 0.42577 0.79842 0.42574
vn 0.42570 0.79843 0.42578
vn 0.42569 0.79843 0.42578
vn -0.42574 0.79842 0.42577
vn -0.69656 -0.17221 -0.69653
vn -0.69657 -0.17221 -0.69651
vn -0.67919 -0.27768 -0.67941
vn -0.67918 -0.27767 -0.67942
vn 0.58404 -0.56378 -0.58399
vn 0.62244 -0.47455 -0.62239
vn 0.58404 -0.56378 0.58399
vn 0.62244 -0.47455 0.62239
vn -0.58398 -0.56379 0.58404
vn -0.58399 -0.56379 0.58404
vn -0.62233 -0.47456 0.62249
vn -0.62233 -0.47455 0.62249
vn -0.70634 0.70787 -0.00000
vn -0.41100 0.81376 0.41094
vn -0.41100 0.81376 0.41093
vn 0.00000 0.70783 0.70639
vn 0.41099 0.81376 0.41094
vn 0.41100 0.81376 0.41094
vn 0.41097 0.81377 0.41096
vn 0.41096 0.81377 0.41096
vn 0.70634 0.70787 -0.00000
vn 0.41099 0.81377 -0.41094
vn 0.41097 0.81376 -0.41096
vn 0.41097 0.81376 -0.41097
vn 0.00000 0.70783 -0.70639
vn -0.41100 0.81376 -0.41094
vn -0.41100 0.81376 -0.41093
vn -0.70709 0.00000 0.70712
vn 0.70709 0.00000 0.70712
vn 0.70714 0.00000 -0.70707
vn -0.00000 0.00000 -1.00000
vn -0.70709 0.00000 -0.70712
vn -0.83888 -0.54431 -0.00000
vn 0.00000 -0.54425 0.83892
vn 0.83888 -0.54431 -0.00000
vn 0.00000 -0.54429 -0.83889
vn -0.52401 -0.67153 -0.52390
vn -0.52396 -0.67156 -0.52391
vn -0.52400 -0.67153 -0.52390
vn -0.52406 -0.67150 -0.52389
vn 0.52397 -0.67155 -0.52391
vn 0.52396 -0.67154 -0.52392
vn 0.52397 -0.67156 -0.52389
vn -0.52400 -0.67152 0.52391
vn -0.52398 -0.67148 0.52398
vn -0.52400 -0.67152 0.52392
vn -0.52402 -0.67156 0.52385
vn 0.52396 -0.67154 0.52392
vn 0.52393 -0.67156 0.52393
vn 0.52396 -0.67154 0.52393
vn 0.52399 -0.67152 0.52392
vn -0.70716 0.00000 0.70706
vn 0.70716 0.00000 0.70706
vn 0.70716 0.00000 -0.70706
vn -0.70716 0.00000 -0.70706
vn -0.41867 0.88465 0.20521
vn -0.47723 0.86856 0.13366
vn -0.47723 0.86855 -0.13367
vn -0.41865 0.88466 -0.20520
vn 0.20521 0.88465 0.41866
vn 0.13364 0.86854 0.47726
vn -0.13360 0.86853 0.47728
vn -0.20521 0.88465 0.41866
vn 0.41865 0.88466 -0.20518
vn 0.47722 0.86856 -0.13364
vn 0.47722 0.86856 0.13364
vn 0.41865 0.88466 0.20519
vn -0.20521 0.88467 -0.41863
vn -0.13362 0.86854 -0.47727
vn 0.13365 0.86855 -0.47724
vn 0.20521 0.88466 -0.41864
vn 0.00000 -1.00000 -0.00000
# 198 vertex normals

vt 0.00909 0.99245 0.00000
vt 0.01092 0.99382 0.00000
vt 0.16554 0.99382 0.00000
vt 0.16737 0.99245 0.00000
vt 0.16737 0.87600 0.00000
vt 0.16554 0.87463 0.00000
vt 0.01092 0.87463 0.00000
vt 0.00909 0.87600 0.00000
vt 0.50060 0.76723 0.00000
vt 0.74182 0.76723 0.00000
vt 0.74214 0.01225 0.00000
vt 0.50027 0.01225 0.00000
vt 0.74512 0.76723 0.00000
vt 0.98647 0.76723 0.00000
vt 0.98680 0.01225 0.00000
vt 0.74512 0.01225 0.00000
vt 0.01125 0.76723 0.00000
vt 0.25247 0.76723 0.00000
vt 0.25280 0.01225 0.00000
vt 0.01092 0.01225 0.00000
vt 0.25578 0.76723 0.00000
vt 0.49713 0.76723 0.00000
vt 0.49745 0.01225 0.00000
vt 0.25578 0.01225 0.00000
vt 0.19386 0.88854 0.00000
vt 0.19161 0.90887 0.00000
vt 0.34770 0.90887 0.00000
vt 0.34546 0.88854 0.00000
vt 0.39879 0.88810 0.00000
vt 0.39654 0.90843 0.00000
vt 0.55261 0.90843 0.00000
vt 0.55037 0.88810 0.00000
vt 0.60759 0.88970 0.00000
vt 0.60534 0.91002 0.00000
vt 0.76143 0.91002 0.00000
vt 0.75919 0.88970 0.00000
vt 0.81208 0.88925 0.00000
vt 0.80984 0.90957 0.00000
vt 0.96590 0.90957 0.00000
vt 0.96366 0.88925 0.00000
vt 0.17550 0.97258 0.00000
vt 0.36381 0.97258 0.00000
vt 0.36391 0.95886 0.00000
vt 0.17541 0.95886 0.00000
vt 0.38044 0.97215 0.00000
vt 0.56872 0.97215 0.00000
vt 0.56881 0.95843 0.00000
vt 0.38034 0.95843 0.00000
vt 0.58923 0.97374 0.00000
vt 0.77754 0.97374 0.00000
vt 0.77764 0.96002 0.00000
vt 0.58914 0.96002 0.00000
vt 0.79373 0.97329 0.00000
vt 0.98201 0.97329 0.00000
vt 0.98210 0.95957 0.00000
vt 0.79363 0.95957 0.00000
vt 0.50055 0.77926 0.00000
vt 0.74182 0.77897 0.00000
vt 0.74528 0.77918 0.00000
vt 0.99590 0.77908 0.00000
vt 0.01107 0.77897 0.00000
vt 0.25236 0.77897 0.00000
vt 0.25591 0.77898 0.00000
vt 0.49694 0.77927 0.00000
vt 0.18965 0.88246 0.00000
vt 0.34966 0.88246 0.00000
vt 0.39458 0.88202 0.00000
vt 0.55457 0.88202 0.00000
vt 0.60338 0.88361 0.00000
vt 0.76339 0.88361 0.00000
vt 0.80787 0.88316 0.00000
vt 0.96786 0.88316 0.00000
vt 0.17013 0.97944 0.00000
vt 0.36918 0.97944 0.00000
vt 0.37507 0.97900 0.00000
vt 0.57409 0.97900 0.00000
vt 0.58386 0.98060 0.00000
vt 0.78291 0.98060 0.00000
vt 0.78836 0.98015 0.00000
vt 0.98738 0.98015 0.00000
vt 0.17572 0.98630 0.00000
vt 0.36360 0.98630 0.00000
vt 0.38065 0.98586 0.00000
vt 0.56850 0.98586 0.00000
vt 0.58944 0.98746 0.00000
vt 0.77733 0.98746 0.00000
vt 0.79394 0.98701 0.00000
vt 0.98180 0.98701 0.00000
vt 0.18452 0.93716 0.00000
vt 0.35480 0.93716 0.00000
vt 0.38945 0.93673 0.00000
vt 0.55971 0.93673 0.00000
vt 0.59824 0.93832 0.00000
vt 0.76853 0.93832 0.00000
vt 0.80274 0.93787 0.00000
vt 0.97300 0.93787 0.00000
vt 0.97544 0.93680 0.00000
vt 0.98486 0.95895 0.00000
vt 0.00794 0.76723 0.00000
vt 0.00794 0.01225 0.00000
vt 0.35026 0.90826 0.00000
vt 0.34804 0.88950 0.00000
vt 0.60278 0.90942 0.00000
vt 0.60500 0.89066 0.00000
vt 0.80728 0.90897 0.00000
vt 0.80949 0.89021 0.00000
vt 0.98480 0.97213 0.00000
vt 0.36633 0.97143 0.00000
vt 0.36651 0.95819 0.00000
vt 0.58672 0.97258 0.00000
vt 0.58654 0.95934 0.00000
vt 0.79121 0.97213 0.00000
vt 0.79103 0.95889 0.00000
vt 0.35233 0.88504 0.00000
vt 0.97053 0.88575 0.00000
vt 0.96638 0.89019 0.00000
vt 0.60072 0.88620 0.00000
vt 0.80521 0.88575 0.00000
vt 0.00778 0.77888 0.00000
vt 0.99071 0.98014 0.00000
vt 0.37155 0.97944 0.00000
vt 0.58149 0.98060 0.00000
vt 0.78599 0.98015 0.00000
vt 0.98416 0.98956 0.00000
vt 0.36597 0.98886 0.00000
vt 0.58708 0.99001 0.00000
vt 0.79157 0.98956 0.00000
vt 0.96858 0.90895 0.00000
vt 0.35735 0.93603 0.00000
vt 0.59569 0.93719 0.00000
vt 0.80018 0.93674 0.00000
vt 0.97867 0.84398 0.00000
vt 0.74074 0.84398 0.00000
vt 0.75206 0.86732 0.00000
vt 0.96736 0.86732 0.00000
vt 0.73437 0.84398 0.00000
vt 0.72305 0.86732 0.00000
vt 0.49640 0.84398 0.00000
vt 0.50772 0.86849 0.00000
vt 0.49003 0.84398 0.00000
vt 0.47872 0.86849 0.00000
vt 0.25210 0.84398 0.00000
vt 0.26342 0.86830 0.00000
vt 0.24573 0.84398 0.00000
vt 0.23441 0.86830 0.00000
vt 0.00951 0.84470 0.00000
vt 0.01851 0.86818 0.00000
vt 0.98330 0.84326 0.00000
vt 0.98302 0.86645 0.00000
vt 0.97897 0.83182 0.00000
vt 0.74044 0.83182 0.00000
vt 0.74044 0.83977 0.00000
vt 0.97897 0.83977 0.00000
vt 0.73467 0.83182 0.00000
vt 0.73467 0.83977 0.00000
vt 0.49611 0.83182 0.00000
vt 0.49611 0.83977 0.00000
vt 0.49033 0.83182 0.00000
vt 0.49033 0.83977 0.00000
vt 0.25180 0.83182 0.00000
vt 0.25180 0.83977 0.00000
vt 0.24603 0.83182 0.00000
vt 0.24603 0.83977 0.00000
vt 0.00747 0.83182 0.00000
vt 0.00747 0.83977 0.00000
vt 0.98475 0.83182 0.00000
vt 0.98475 0.83977 0.00000
vt 0.75122 0.86993 0.00000
vt 0.96819 0.87052 0.00000
vt 0.50689 0.87110 0.00000
vt 0.72389 0.86992 0.00000
vt 0.26258 0.87091 0.00000
vt 0.47955 0.87110 0.00000
vt 0.01682 0.87085 0.00000
vt 0.23525 0.87091 0.00000
vt 0.98304 0.87019 0.00000
vt 0.50365 0.80969 0.00000
vt 0.50365 0.81788 0.00000
vt 0.74496 0.81788 0.00000
vt 0.74496 0.80969 0.00000
vt 0.74793 0.81788 0.00000
vt 0.74793 0.80969 0.00000
vt 0.98928 0.81788 0.00000
vt 0.98928 0.80969 0.00000
vt 0.99225 0.81788 0.00000
vt 0.99225 0.80969 0.00000
vt 0.01505 0.80969 0.00000
vt 0.01505 0.81788 0.00000
vt 0.25636 0.81788 0.00000
vt 0.25636 0.80969 0.00000
vt 0.25933 0.81788 0.00000
vt 0.25933 0.80969 0.00000
vt 0.50068 0.81788 0.00000
vt 0.50068 0.80969 0.00000
vt 0.25571 0.00621 0.00000
vt 0.49740 0.00620 0.00000
vt 0.01101 0.00620 0.00000
vt 0.25269 0.00620 0.00000
vt 0.74502 0.00621 0.00000
vt 0.99168 0.00617 0.00000
vt 0.50025 0.00620 0.00000
vt 0.74197 0.00620 0.00000
vt 0.00788 0.00624 0.00000
vt 0.97867 0.82761 0.00000
vt 0.74074 0.82761 0.00000
vt 0.98330 0.82761 0.00000
vt 0.24573 0.82761 0.00000
vt 0.00951 0.82761 0.00000
vt 0.25210 0.82761 0.00000
vt 0.49003 0.82761 0.00000
vt 0.49640 0.82761 0.00000
vt 0.73437 0.82761 0.00000
# 212 texture coords

g Column_B
usemtl Column_C
s off
f 1/1/1 2/2/1 3/3/1 4/4/1 5/5/1 6/6/1 7/7/1 8/8/1 
f 9/9/2 10/10/2 11/11/2 12/12/2 
f 13/13/3 14/14/3 15/15/3 16/16/3 
f 17/17/4 18/18/4 19/19/4 20/20/4 
f 21/21/5 22/22/5 23/23/5 24/24/5 
f 25/25/6 26/26/7 27/27/7 28/28/8 
f 29/29/9 30/30/10 31/31/10 32/32/9 
f 33/33/11 34/34/12 35/35/12 36/36/11 
f 37/37/13 38/38/14 39/39/14 40/40/13 
f 41/41/2 42/42/2 43/43/2 44/44/2 
f 45/45/3 46/46/3 47/47/3 48/48/3 
f 49/49/4 50/50/4 51/51/4 52/52/4 
f 53/53/5 54/54/5 55/55/5 56/56/5 
f 9/9/15 57/57/15 58/58/15 10/10/15 
f 13/13/16 59/59/16 60/60/16 14/14/16 
f 17/17/17 61/61/17 62/62/17 18/18/17 
f 21/21/18 63/63/18 64/64/18 22/22/18 
f 57/65/19 25/25/19 28/28/19 58/66/19 
f 59/67/20 29/29/20 32/32/20 60/68/20 
f 61/69/21 33/33/21 36/36/21 62/70/21 
f 63/71/22 37/37/22 40/40/22 64/72/22 
f 41/41/23 65/73/23 66/74/23 42/42/23 
f 45/45/24 67/75/24 68/76/24 46/46/24 
f 49/49/25 69/77/25 70/78/25 50/50/25 
f 53/53/26 71/79/26 72/80/26 54/54/26 
f 65/73/27 3/81/27 2/82/27 66/74/27 
f 67/75/28 1/83/29 8/84/29 68/76/28 
f 69/77/30 7/85/30 6/86/30 70/78/30 
f 71/79/31 5/87/31 4/88/31 72/80/31 
f 73/89/32 44/44/33 43/43/34 74/90/32 
f 75/91/35 48/48/36 47/47/36 76/92/35 
f 77/93/37 52/52/38 51/51/38 78/94/37 
f 79/95/39 56/56/40 55/55/40 80/96/39 
f 26/26/7 73/89/32 74/90/32 27/27/7 
f 30/30/10 75/91/35 76/92/35 31/31/10 
f 34/34/12 77/93/37 78/94/37 35/35/12 
f 38/38/14 79/95/39 80/96/39 39/39/14 
f 10/10/41 13/13/41 16/16/42 11/11/42 
f 73/97/43 80/96/44 55/55/45 44/98/46 
f 14/99/47 17/17/47 20/20/48 15/100/48 
f 18/18/49 21/21/49 24/24/50 19/19/50 
f 27/27/51 30/101/51 29/102/52 28/28/53 
f 12/12/54 23/23/54 22/22/55 9/9/55 
f 31/103/56 34/34/57 33/33/58 32/104/59 
f 35/105/60 38/38/61 37/37/62 36/106/63 
f 54/54/64 41/107/65 44/98/66 55/55/66 
f 42/42/67 45/108/67 48/109/68 43/43/68 
f 46/110/69 49/49/69 52/52/70 47/111/70 
f 50/112/71 53/53/72 56/56/73 51/113/74 
f 59/114/75 58/66/76 28/28/77 29/102/77 
f 57/115/78 64/72/79 40/40/80 25/116/81 
f 61/69/82 60/117/82 32/104/83 33/33/84 
f 63/71/85 62/118/86 36/106/87 37/37/88 
f 13/13/89 10/10/90 58/58/91 59/59/92 
f 9/9/93 22/22/93 64/64/94 57/57/94 
f 17/17/95 14/99/96 60/119/97 61/61/97 
f 21/21/98 18/18/99 62/62/100 63/63/100 
f 72/80/101 65/120/102 41/107/103 54/54/104 
f 66/74/105 67/121/106 45/108/107 42/42/108 
f 68/122/109 69/77/110 49/49/111 46/110/112 
f 70/123/113 71/79/114 53/53/115 50/112/116 
f 4/88/117 3/124/117 65/120/117 72/80/117 
f 2/82/118 1/125/119 67/121/120 66/74/121 
f 8/126/122 7/85/123 69/77/124 68/122/125 
f 6/127/126 5/87/126 71/79/126 70/123/126 
f 25/116/127 40/40/128 39/39/129 26/128/130 
f 43/43/131 48/109/131 75/129/132 74/90/132 
f 47/111/133 52/52/133 77/93/134 76/130/134 
f 51/113/135 56/56/136 79/95/137 78/131/138 
f 80/96/44 73/97/43 26/128/130 39/39/129 
f 74/90/132 75/129/132 30/101/51 27/27/51 
f 76/130/134 77/93/134 34/34/57 31/103/56 
f 78/131/138 79/95/137 38/38/61 35/105/60 
f 81/132/139 82/133/139 83/134/139 84/135/139 
f 82/133/140 85/136/140 86/137/141 83/134/141 
f 85/136/142 87/138/142 88/139/142 86/137/142 
f 87/138/143 89/140/144 90/141/145 88/139/146 
f 89/140/147 91/142/147 92/143/147 90/141/147 
f 91/142/148 93/144/148 94/145/149 92/143/150 
f 93/144/151 95/146/151 96/147/151 94/145/151 
f 95/148/152 81/132/152 84/135/153 96/149/153 
f 97/150/5 98/151/5 99/152/5 100/153/5 
f 98/151/154 101/154/154 102/155/154 99/152/154 
f 101/154/4 103/156/4 104/157/4 102/155/4 
f 103/156/155 105/158/155 106/159/155 104/157/155 
f 105/158/3 107/160/3 108/161/3 106/159/3 
f 107/160/156 109/162/156 110/163/156 108/161/156 
f 109/162/157 111/164/157 112/165/157 110/163/157 
f 111/166/158 97/150/158 100/153/158 112/167/158 
f 83/134/159 113/168/159 114/169/159 84/135/159 
f 88/139/160 115/170/160 116/171/160 86/137/160 
f 92/143/161 117/172/161 118/173/161 90/141/161 
f 96/147/162 119/174/162 120/175/162 94/145/162 
f 84/135/163 114/169/164 119/176/165 96/149/166 
f 94/145/167 120/175/168 117/172/167 92/143/169 
f 86/137/170 116/171/171 113/168/172 83/134/173 
f 90/141/174 118/173/175 115/170/176 88/139/177 
f 121/177/5 122/178/5 123/179/5 124/180/5 
f 124/180/178 123/179/178 125/181/178 126/182/178 
f 126/182/4 125/181/4 127/183/4 128/184/4 
f 128/184/179 127/183/179 129/185/179 130/186/179 
f 130/187/3 129/188/3 131/189/3 132/190/3 
f 132/190/180 131/189/180 133/191/180 134/192/180 
f 134/192/2 133/191/2 135/193/2 136/194/2 
f 136/194/181 135/193/181 122/178/181 121/177/181 
f 113/195/182 24/24/183 23/23/184 114/196/185 
f 115/197/186 20/20/187 19/19/188 116/198/189 
f 117/199/190 16/16/191 15/15/192 118/200/193 
f 119/201/194 12/12/195 11/11/196 120/202/197 
f 114/196/185 23/23/184 12/12/195 119/201/194 
f 120/202/197 11/11/196 16/16/191 117/199/190 
f 116/198/189 19/19/188 24/24/183 113/195/182 
f 118/203/193 15/100/192 20/20/187 115/197/186 
f 100/153/1 99/152/1 82/133/1 81/132/1 
f 99/152/1 102/155/1 85/136/1 82/133/1 
f 102/155/1 104/157/1 87/138/1 85/136/1 
f 104/157/1 106/159/1 89/140/1 87/138/1 
f 106/159/1 108/161/1 91/142/1 89/140/1 
f 108/161/1 110/163/1 93/144/1 91/142/1 
f 110/163/1 112/165/1 95/146/1 93/144/1 
f 112/167/1 100/153/1 81/132/1 95/148/1 
f 98/151/198 97/150/198 121/204/198 124/205/198 
f 97/150/198 111/166/198 136/206/198 121/204/198 
f 111/164/198 109/162/198 134/207/198 136/208/198 
f 109/162/198 107/160/198 132/209/198 134/207/198 
f 107/160/198 105/158/198 130/210/198 132/209/198 
f 105/158/198 103/156/198 128/211/198 130/210/198 
f 103/156/198 101/154/198 126/212/198 128/211/198 
f 101/154/198 98/151/198 124/205/198 126/212/198 
# 129 polygons

