# 3ds Max Wavefront OBJ Exporter v0.97b - (c)2007 guruware
# File Created: 28.01.2016 15:16:13

#
# object DirectionalLight
#

v  8.00000 -8.00000 -0.00000
v  7.39104 -8.00000 -3.06147
v  0.00000 12.00000 -0.00000
v  5.65685 -8.00000 -5.65685
v  3.06147 -8.00000 -7.39104
v  -0.00000 -8.00000 -8.00000
v  -3.06147 -8.00000 -7.39104
v  -5.65685 -8.00000 -5.65685
v  -7.39104 -8.00000 -3.06147
v  -8.00000 -8.00000 -0.00000
v  -7.39104 -8.00000 3.06147
v  -5.65686 -8.00000 5.65685
v  -3.06147 -8.00000 7.39104
v  0.00000 -8.00000 8.00000
v  3.06147 -8.00000 7.39104
v  5.65686 -8.00000 5.65685
v  7.39104 -8.00000 3.06146
# 17 vertices

vn 0.92848 0.37139 -0.00000
vn 0.85780 0.37139 -0.35531
vn 0.00000 1.00000 0.00000
vn 0.65653 0.37139 -0.65653
vn 0.35531 0.37139 -0.85780
vn 0.00000 0.37139 -0.92848
vn -0.35531 0.37139 -0.85780
vn -0.65653 0.37139 -0.65653
vn -0.85780 0.37139 -0.35531
vn -0.92848 0.37139 -0.00000
vn -0.85780 0.37139 0.35531
vn -0.65653 0.37139 0.65653
vn -0.35531 0.37139 0.85780
vn 0.00000 0.37139 0.92848
vn 0.35531 0.37139 0.85780
vn 0.65653 0.37139 0.65653
vn 0.85780 0.37139 0.35531
vn 0.00000 -1.00000 -0.00000
# 18 vertex normals

vt 0.93961 0.37926 0.98136
vt 0.96728 0.46148 0.98136
vt 0.38763 0.61075 -0.98136
vt 0.98276 0.54682 0.98136
vt 0.98576 0.63351 0.98136
vt 0.97619 0.71971 0.98136
vt 0.06624 0.10580 0.98136
vt 0.14260 0.06465 0.98136
vt 0.22410 0.03497 0.98136
vt 0.30903 0.01738 0.98136
vt 0.39562 0.01225 0.98136
vt 0.48204 0.01969 0.98136
vt 0.56648 0.03954 0.98136
vt 0.64716 0.07138 0.98136
vt 0.72239 0.11456 0.98136
vt 0.79059 0.16815 0.98136
vt 0.85034 0.23105 0.98136
vt 0.90036 0.30191 0.98136
vt 0.41625 0.64442 0.00000
vt 0.18741 0.98553 0.00000
vt 0.10734 0.95219 0.00000
vt 0.35503 0.58297 0.00000
vt 0.01324 0.72381 0.00000
vt 0.04658 0.64373 0.00000
vt 0.10802 0.58252 0.00000
vt 0.44914 0.81135 0.00000
vt 0.35435 0.95265 0.00000
vt 0.27415 0.98569 0.00000
vt 0.44930 0.72462 0.00000
vt 0.41580 0.89143 0.00000
vt 0.04612 0.89074 0.00000
vt 0.27496 0.54963 0.00000
vt 0.01307 0.81055 0.00000
vt 0.18822 0.54947 0.00000
# 34 texture coords

g DirectionalLight
s 1
f 1/1/1 2/2/2 3/3/3 
f 2/2/2 4/4/4 3/3/3 
f 4/4/4 5/5/5 3/3/3 
f 5/5/5 6/6/6 3/3/3 
f 6/7/6 7/8/7 3/3/3 
f 7/8/7 8/9/8 3/3/3 
f 8/9/8 9/10/9 3/3/3 
f 9/10/9 10/11/10 3/3/3 
f 10/11/10 11/12/11 3/3/3 
f 11/12/11 12/13/12 3/3/3 
f 12/13/12 13/14/13 3/3/3 
f 13/14/13 14/15/14 3/3/3 
f 14/15/14 15/16/15 3/3/3 
f 15/16/15 16/17/16 3/3/3 
f 16/17/16 17/18/17 3/3/3 
f 17/18/17 1/1/1 3/3/3 
s 2
f 13/19/18 7/20/18 6/21/18 14/22/18 
f 2/23/18 1/24/18 17/25/18 
f 11/26/18 9/27/18 8/28/18 12/29/18 
f 7/20/18 13/19/18 12/29/18 8/28/18 
f 11/26/18 10/30/18 9/27/18 
f 5/31/18 15/32/18 14/22/18 6/21/18 
f 15/32/18 5/31/18 4/33/18 16/34/18 
f 16/34/18 4/33/18 2/23/18 17/25/18 
# 6 polygons - 18 triangles

