# 3ds Max Wavefront OBJ Exporter v0.97b - (c)2007 guruware
# File Created: 28.01.2016 15:16:38

#
# object SpotLight
#

v  4.00000 -10.00000 -0.00000
v  3.75877 -10.00000 -1.36808
v  3.75877 5.00000 -1.36808
v  4.00000 5.00000 0.00000
v  3.06418 -10.00000 -2.57115
v  3.06418 5.00000 -2.57115
v  2.00000 -10.00000 -3.46410
v  2.00000 5.00000 -3.46410
v  0.69459 -10.00000 -3.93923
v  0.69459 5.00000 -3.93923
v  -0.69459 -10.00000 -3.93923
v  -0.69459 5.00000 -3.93923
v  -2.00000 -10.00000 -3.46410
v  -2.00000 5.00000 -3.46410
v  -3.06418 -10.00000 -2.57115
v  -3.06418 5.00000 -2.57115
v  -3.75877 -10.00000 -1.36808
v  -3.75877 5.00000 -1.36808
v  -4.00000 -10.00000 -0.00000
v  -4.00000 5.00000 -0.00000
v  -3.75877 -10.00000 1.36808
v  -3.75877 5.00000 1.36808
v  -3.06418 -10.00000 2.57115
v  -3.06418 5.00000 2.57115
v  -2.00000 -10.00000 3.46410
v  -2.00000 5.00000 3.46410
v  -0.69459 -10.00000 3.93923
v  -0.69459 5.00000 3.93923
v  0.69459 -10.00000 3.93923
v  0.69459 5.00000 3.93923
v  2.00000 -10.00000 3.46410
v  2.00000 5.00000 3.46410
v  3.06418 -10.00000 2.57115
v  3.06418 5.00000 2.57115
v  3.75877 -10.00000 1.36808
v  3.75877 5.00000 1.36808
v  6.76066 5.00000 -2.46068
v  7.19454 5.00000 -0.00000
v  5.51134 5.00000 -4.62456
v  3.59727 5.00000 -6.23065
v  1.24932 5.00000 -7.08524
v  -1.24932 5.00000 -7.08524
v  -3.59727 5.00000 -6.23065
v  -5.51134 5.00000 -4.62456
v  -6.76066 5.00000 -2.46068
v  -7.19454 5.00000 -0.00000
v  -6.76066 5.00000 2.46068
v  -5.51134 5.00000 4.62456
v  -3.59727 5.00000 6.23065
v  -1.24932 5.00000 7.08524
v  1.24932 5.00000 7.08524
v  3.59727 5.00000 6.23066
v  5.51134 5.00000 4.62457
v  6.76066 5.00000 2.46068
v  -0.00000 20.00000 0.00000
# 55 vertices

vn 1.00000 0.00000 0.00000
vn 0.93969 0.00000 -0.34202
vn 1.00000 -0.00000 0.00000
vn 0.76604 0.00000 -0.64279
vn 0.50000 0.00000 -0.86603
vn 0.17365 0.00000 -0.98481
vn -0.17365 0.00000 -0.98481
vn -0.50000 0.00000 -0.86603
vn -0.76604 0.00000 -0.64279
vn -0.93969 0.00000 -0.34202
vn -1.00000 -0.00000 -0.00000
vn -1.00000 0.00000 -0.00000
vn -0.93969 -0.00000 0.34202
vn -0.76604 -0.00000 0.64279
vn -0.50000 -0.00000 0.86603
vn -0.17365 -0.00000 0.98481
vn 0.17365 -0.00000 0.98481
vn 0.50000 -0.00000 0.86603
vn 0.76604 -0.00000 0.64279
vn 0.93969 -0.00000 0.34202
vn 0.00000 -1.00000 -0.00000
vn 0.90165 0.43246 0.00000
vn 0.84727 0.43246 -0.30838
vn 0.00000 1.00000 -0.00000
vn 0.69070 0.43246 -0.57957
vn 0.45083 0.43246 -0.78085
vn 0.15657 0.43246 -0.88795
vn -0.15657 0.43246 -0.88795
vn -0.45083 0.43246 -0.78085
vn -0.69070 0.43246 -0.57957
vn -0.84727 0.43246 -0.30838
vn -0.90165 0.43246 -0.00000
vn -0.84727 0.43246 0.30838
vn -0.69071 0.43246 0.57957
vn -0.45083 0.43246 0.78085
vn -0.15657 0.43246 0.88795
vn 0.15657 0.43246 0.88795
vn 0.45083 0.43246 0.78085
vn 0.69070 0.43246 0.57957
vn 0.84727 0.43246 0.30838
# 40 vertex normals

vt 0.27708 0.02304 0.00000
vt 0.31354 0.02304 0.00000
vt 0.31354 0.41681 0.00000
vt 0.27708 0.41681 0.00000
vt 0.35000 0.02304 0.00000
vt 0.35000 0.41681 0.00000
vt 0.38646 0.02304 0.00000
vt 0.38646 0.41681 0.00000
vt 0.42293 0.02304 0.00000
vt 0.42293 0.41681 0.00000
vt 0.45939 0.02304 0.00000
vt 0.45939 0.41681 0.00000
vt 0.49586 0.02304 0.00000
vt 0.49586 0.41681 0.00000
vt 0.53232 0.02304 0.00000
vt 0.53232 0.41681 0.00000
vt 0.56879 0.02304 0.00000
vt 0.56879 0.41681 0.00000
vt 0.60526 0.02304 0.00000
vt 0.60526 0.41681 0.00000
vt 0.64172 0.02304 0.00000
vt 0.64172 0.41681 0.00000
vt 0.67819 0.02304 0.00000
vt 0.67819 0.41681 0.00000
vt 0.02183 0.02304 0.00000
vt 0.05830 0.02304 0.00000
vt 0.05830 0.41681 0.00000
vt 0.02183 0.41681 0.00000
vt 0.09476 0.02304 0.00000
vt 0.09476 0.41681 0.00000
vt 0.13123 0.02304 0.00000
vt 0.13123 0.41681 0.00000
vt 0.16769 0.02304 0.00000
vt 0.16769 0.41681 0.00000
vt 0.20415 0.02304 0.00000
vt 0.20415 0.41681 0.00000
vt 0.24061 0.02304 0.00000
vt 0.24061 0.41681 0.00000
vt 0.20815 0.68506 0.00000
vt 0.17224 0.69139 0.00000
vt 0.14356 0.61259 0.00000
vt 0.20815 0.60120 0.00000
vt 0.14066 0.70962 0.00000
vt 0.08676 0.64538 0.00000
vt 0.11723 0.73756 0.00000
vt 0.04460 0.69563 0.00000
vt 0.10475 0.77182 0.00000
vt 0.02217 0.75726 0.00000
vt 0.10475 0.80829 0.00000
vt 0.02217 0.82285 0.00000
vt 0.11723 0.84255 0.00000
vt 0.04460 0.88448 0.00000
vt 0.14066 0.87049 0.00000
vt 0.08676 0.93473 0.00000
vt 0.17224 0.88872 0.00000
vt 0.14356 0.96752 0.00000
vt 0.20815 0.89505 0.00000
vt 0.20815 0.97891 0.00000
vt 0.24405 0.88872 0.00000
vt 0.27274 0.96752 0.00000
vt 0.27563 0.87049 0.00000
vt 0.32954 0.93473 0.00000
vt 0.29907 0.84255 0.00000
vt 0.37170 0.88449 0.00000
vt 0.31154 0.80829 0.00000
vt 0.39413 0.82285 0.00000
vt 0.31154 0.77182 0.00000
vt 0.39413 0.75726 0.00000
vt 0.29907 0.73756 0.00000
vt 0.37170 0.69563 0.00000
vt 0.27563 0.70962 0.00000
vt 0.32954 0.64538 0.00000
vt 0.24405 0.69139 0.00000
vt 0.27274 0.61259 0.00000
vt 0.92476 0.84554 0.00000
vt 0.89053 0.90149 0.00000
vt 0.53618 0.64623 0.00000
vt 0.84830 0.95168 0.00000
vt 0.95742 0.51786 0.00000
vt 0.90071 0.55081 0.00000
vt 0.71029 0.15781 0.00000
vt 0.83971 0.57490 0.00000
vt 0.77578 0.58958 0.00000
vt 0.71038 0.59452 0.00000
vt 0.39748 0.96637 0.00000
vt 0.40390 0.90109 0.00000
vt 0.83407 0.97638 0.00000
vt 0.42003 0.83752 0.00000
vt 0.44550 0.77707 0.00000
vt 0.47973 0.72113 0.00000
vt 0.52195 0.67094 0.00000
vt 0.71278 0.11522 0.00000
vt 0.76905 0.08206 0.00000
vt 0.96124 0.47210 0.00000
vt 0.83016 0.05747 0.00000
vt 0.89486 0.04235 0.00000
vt 0.96054 0.03732 0.00000
vt 0.97278 0.65625 0.00000
vt 0.96635 0.72153 0.00000
vt 0.95022 0.78510 0.00000
vt 0.30192 0.77378 0.00000
vt 0.30192 0.80671 0.00000
vt 0.29066 0.83766 0.00000
vt 0.29066 0.74284 0.00000
vt 0.17613 0.87935 0.00000
vt 0.17613 0.70114 0.00000
vt 0.20855 0.69543 0.00000
vt 0.20855 0.88507 0.00000
vt 0.24098 0.70114 0.00000
vt 0.24098 0.87935 0.00000
vt 0.26949 0.71761 0.00000
vt 0.26949 0.86289 0.00000
vt 0.14761 0.86289 0.00000
vt 0.14761 0.71761 0.00000
vt 0.12645 0.83766 0.00000
vt 0.12645 0.74284 0.00000
vt 0.11518 0.80671 0.00000
vt 0.11518 0.77378 0.00000
# 118 texture coords

g SpotLight
s 1
f 1/1/1 2/2/2 3/3/2 4/4/3 
f 2/2/2 5/5/4 6/6/4 3/3/2 
f 5/5/4 7/7/5 8/8/5 6/6/4 
f 7/7/5 9/9/6 10/10/6 8/8/5 
f 9/9/6 11/11/7 12/12/7 10/10/6 
f 11/11/7 13/13/8 14/14/8 12/12/7 
f 13/13/8 15/15/9 16/16/9 14/14/8 
f 15/15/9 17/17/10 18/18/10 16/16/9 
f 17/17/10 19/19/11 20/20/12 18/18/10 
f 19/19/11 21/21/13 22/22/13 20/20/12 
f 21/21/13 23/23/14 24/24/14 22/22/13 
f 23/25/14 25/26/15 26/27/15 24/28/14 
f 25/26/15 27/29/16 28/30/16 26/27/15 
f 27/29/16 29/31/17 30/32/17 28/30/16 
f 29/31/17 31/33/18 32/34/18 30/32/17 
f 31/33/18 33/35/19 34/36/19 32/34/18 
f 33/35/19 35/37/20 36/38/20 34/36/19 
f 35/37/20 1/1/1 4/4/3 36/38/20 
s 2
f 4/39/21 3/40/21 37/41/21 38/42/21 
f 3/40/21 6/43/21 39/44/21 37/41/21 
f 6/43/21 8/45/21 40/46/21 39/44/21 
f 8/45/21 10/47/21 41/48/21 40/46/21 
f 10/47/21 12/49/21 42/50/21 41/48/21 
f 12/49/21 14/51/21 43/52/21 42/50/21 
f 14/51/21 16/53/21 44/54/21 43/52/21 
f 16/53/21 18/55/21 45/56/21 44/54/21 
f 18/55/21 20/57/21 46/58/21 45/56/21 
f 20/57/21 22/59/21 47/60/21 46/58/21 
f 22/59/21 24/61/21 48/62/21 47/60/21 
f 24/61/21 26/63/21 49/64/21 48/62/21 
f 26/63/21 28/65/21 50/66/21 49/64/21 
f 28/65/21 30/67/21 51/68/21 50/66/21 
f 30/67/21 32/69/21 52/70/21 51/68/21 
f 32/69/21 34/71/21 53/72/21 52/70/21 
f 34/71/21 36/73/21 54/74/21 53/72/21 
f 36/73/21 4/39/21 38/42/21 54/74/21 
s 1
f 38/75/22 37/76/23 55/77/24 
f 37/76/23 39/78/25 55/77/24 
f 39/79/25 40/80/26 55/81/24 
f 40/80/26 41/82/27 55/81/24 
f 41/82/27 42/83/28 55/81/24 
f 42/83/28 43/84/29 55/81/24 
f 43/85/29 44/86/30 55/87/24 
f 44/86/30 45/88/31 55/87/24 
f 45/88/31 46/89/32 55/87/24 
f 46/89/32 47/90/33 55/87/24 
f 47/90/33 48/91/34 55/87/24 
f 48/92/34 49/93/35 55/94/24 
f 49/93/35 50/95/36 55/94/24 
f 50/95/36 51/96/37 55/94/24 
f 51/96/37 52/97/38 55/94/24 
f 52/98/38 53/99/39 55/77/24 
f 53/99/39 54/100/40 55/77/24 
f 54/100/40 38/75/22 55/77/24 
s 2
f 29/101/21 27/102/21 25/103/21 31/104/21 
f 17/105/21 2/106/21 1/107/21 19/108/21 
f 19/108/21 1/107/21 35/109/21 21/110/21 
f 21/110/21 35/109/21 33/111/21 23/112/21 
f 23/112/21 33/111/21 31/104/21 25/103/21 
f 15/113/21 5/114/21 2/106/21 17/105/21 
f 13/115/21 7/116/21 5/114/21 15/113/21 
f 11/117/21 9/118/21 7/116/21 13/115/21 
# 44 polygons - 18 triangles

